<?xml version="1.0" encoding="utf-8"?>
<!-- Generator: Adobe Illustrator 27.5.0, SVG Export Plug-In . SVG Version: 6.00 Build 0)  -->
<svg version="1.1" xmlns="http://www.w3.org/2000/svg" xmlns:xlink="http://www.w3.org/1999/xlink" x="0px" y="0px"
	 viewBox="0 0 500 500" style="enable-background:new 0 0 500 500;" xml:space="preserve">
<g id="BACKGROUND">
	<rect style="fill:#FFFFFF;" width="500" height="500"/>
</g>
<g id="OBJECTS">
	<g>
		<g>
			<g>
				<circle style="fill:#F8E4CF;" cx="247.874" cy="263.541" r="175.993"/>
				<g>
					
						<ellipse style="fill:none;stroke:#DEC5AB;stroke-width:0.5;stroke-miterlimit:10;" cx="247.874" cy="263.541" rx="134.501" ry="175.993"/>
					
						<ellipse style="fill:none;stroke:#DEC5AB;stroke-width:0.5;stroke-miterlimit:10;" cx="247.874" cy="263.541" rx="42.464" ry="175.993"/>
					
						<ellipse style="fill:none;stroke:#DEC5AB;stroke-width:0.5;stroke-miterlimit:10;" cx="247.874" cy="263.541" rx="175.993" ry="134.501"/>
					
						<ellipse style="fill:none;stroke:#DEC5AB;stroke-width:0.5;stroke-miterlimit:10;" cx="247.874" cy="263.541" rx="175.993" ry="42.464"/>
				</g>
			</g>
			<g>
				<path style="fill:#DEC5AB;" d="M316.367,139.747c0,5.884-10.654,18.627-10.654,18.627s-10.654-12.743-10.654-18.627
					c0-5.884,4.77-10.654,10.654-10.654C311.597,129.094,316.367,133.864,316.367,139.747z"/>
				<circle style="fill:#F8E4CF;" cx="305.713" cy="139.747" r="4.735"/>
			</g>
			<g>
				<path style="fill:#DEC5AB;" d="M149.785,267.472c0,5.884-10.654,18.627-10.654,18.627s-10.654-12.743-10.654-18.627
					c0-5.884,4.77-10.654,10.654-10.654C145.015,256.818,149.785,261.588,149.785,267.472z"/>
				<path style="fill:#F8E4CF;" d="M143.866,267.472c0,2.615-2.12,4.735-4.735,4.735c-2.615,0-4.735-2.12-4.735-4.735
					c0-2.615,2.12-4.735,4.735-4.735C141.746,262.737,143.866,264.857,143.866,267.472z"/>
			</g>
		</g>
		<g>
			<g>
				<g>
					<g>
						<g>
							<rect x="267.095" y="286.621" style="fill:#3B7977;" width="132.304" height="81.815"/>
							<rect x="267.095" y="295.824" style="fill:#184347;" width="132.304" height="63.408"/>
							<g>
								
									<line style="fill:none;stroke:#3B7977;stroke-width:2;stroke-miterlimit:10;" x1="272.848" y1="295.824" x2="272.848" y2="359.232"/>
								
									<line style="fill:none;stroke:#3B7977;stroke-width:2;stroke-miterlimit:10;" x1="280.901" y1="295.824" x2="280.901" y2="359.232"/>
								
									<line style="fill:none;stroke:#3B7977;stroke-width:2;stroke-miterlimit:10;" x1="288.954" y1="295.824" x2="288.954" y2="359.232"/>
								
									<line style="fill:none;stroke:#3B7977;stroke-width:2;stroke-miterlimit:10;" x1="297.008" y1="295.824" x2="297.008" y2="359.232"/>
								
									<line style="fill:none;stroke:#3B7977;stroke-width:2;stroke-miterlimit:10;" x1="305.061" y1="295.824" x2="305.061" y2="359.232"/>
								
									<line style="fill:none;stroke:#3B7977;stroke-width:2;stroke-miterlimit:10;" x1="313.114" y1="295.824" x2="313.114" y2="359.232"/>
								
									<line style="fill:none;stroke:#3B7977;stroke-width:2;stroke-miterlimit:10;" x1="321.167" y1="295.824" x2="321.167" y2="359.232"/>
								
									<line style="fill:none;stroke:#3B7977;stroke-width:2;stroke-miterlimit:10;" x1="329.221" y1="295.824" x2="329.221" y2="359.232"/>
								
									<line style="fill:none;stroke:#3B7977;stroke-width:2;stroke-miterlimit:10;" x1="337.274" y1="295.824" x2="337.274" y2="359.232"/>
								
									<line style="fill:none;stroke:#3B7977;stroke-width:2;stroke-miterlimit:10;" x1="345.327" y1="295.824" x2="345.327" y2="359.232"/>
								
									<line style="fill:none;stroke:#3B7977;stroke-width:2;stroke-miterlimit:10;" x1="353.38" y1="295.824" x2="353.38" y2="359.232"/>
								
									<line style="fill:none;stroke:#3B7977;stroke-width:2;stroke-miterlimit:10;" x1="361.434" y1="295.824" x2="361.434" y2="359.232"/>
								
									<line style="fill:none;stroke:#3B7977;stroke-width:2;stroke-miterlimit:10;" x1="369.487" y1="295.824" x2="369.487" y2="359.232"/>
								
									<line style="fill:none;stroke:#3B7977;stroke-width:2;stroke-miterlimit:10;" x1="377.54" y1="295.824" x2="377.54" y2="359.232"/>
								
									<line style="fill:none;stroke:#3B7977;stroke-width:2;stroke-miterlimit:10;" x1="385.594" y1="295.824" x2="385.594" y2="359.232"/>
								
									<line style="fill:none;stroke:#3B7977;stroke-width:2;stroke-miterlimit:10;" x1="393.647" y1="295.824" x2="393.647" y2="359.232"/>
							</g>
						</g>
						<g>
							
								<text transform="matrix(1 0 0 1 275.6182 336.1445)" style="fill:#F8E4CF; font-family:'Poppins-Black'; font-size:28.5086px;">EXPORT</text>
						</g>
					</g>
					<g>
						<rect x="267.095" y="205.031" style="fill:#3B7977;" width="132.304" height="81.815"/>
						<rect x="267.095" y="214.235" style="fill:#184347;" width="132.304" height="63.408"/>
						<g>
							
								<line style="fill:none;stroke:#3B7977;stroke-width:2;stroke-miterlimit:10;" x1="272.848" y1="214.235" x2="272.848" y2="277.643"/>
							
								<line style="fill:none;stroke:#3B7977;stroke-width:2;stroke-miterlimit:10;" x1="280.901" y1="214.235" x2="280.901" y2="277.643"/>
							
								<line style="fill:none;stroke:#3B7977;stroke-width:2;stroke-miterlimit:10;" x1="288.954" y1="214.235" x2="288.954" y2="277.643"/>
							
								<line style="fill:none;stroke:#3B7977;stroke-width:2;stroke-miterlimit:10;" x1="297.008" y1="214.235" x2="297.008" y2="277.643"/>
							
								<line style="fill:none;stroke:#3B7977;stroke-width:2;stroke-miterlimit:10;" x1="305.061" y1="214.235" x2="305.061" y2="277.643"/>
							
								<line style="fill:none;stroke:#3B7977;stroke-width:2;stroke-miterlimit:10;" x1="313.114" y1="214.235" x2="313.114" y2="277.643"/>
							
								<line style="fill:none;stroke:#3B7977;stroke-width:2;stroke-miterlimit:10;" x1="321.167" y1="214.235" x2="321.167" y2="277.643"/>
							
								<line style="fill:none;stroke:#3B7977;stroke-width:2;stroke-miterlimit:10;" x1="329.221" y1="214.235" x2="329.221" y2="277.643"/>
							
								<line style="fill:none;stroke:#3B7977;stroke-width:2;stroke-miterlimit:10;" x1="337.274" y1="214.235" x2="337.274" y2="277.643"/>
							
								<line style="fill:none;stroke:#3B7977;stroke-width:2;stroke-miterlimit:10;" x1="345.327" y1="214.235" x2="345.327" y2="277.643"/>
							
								<line style="fill:none;stroke:#3B7977;stroke-width:2;stroke-miterlimit:10;" x1="353.38" y1="214.235" x2="353.38" y2="277.643"/>
							
								<line style="fill:none;stroke:#3B7977;stroke-width:2;stroke-miterlimit:10;" x1="361.434" y1="214.235" x2="361.434" y2="277.643"/>
							
								<line style="fill:none;stroke:#3B7977;stroke-width:2;stroke-miterlimit:10;" x1="369.487" y1="214.235" x2="369.487" y2="277.643"/>
							
								<line style="fill:none;stroke:#3B7977;stroke-width:2;stroke-miterlimit:10;" x1="377.54" y1="214.235" x2="377.54" y2="277.643"/>
							
								<line style="fill:none;stroke:#3B7977;stroke-width:2;stroke-miterlimit:10;" x1="385.594" y1="214.235" x2="385.594" y2="277.643"/>
							
								<line style="fill:none;stroke:#3B7977;stroke-width:2;stroke-miterlimit:10;" x1="393.647" y1="214.235" x2="393.647" y2="277.643"/>
						</g>
					</g>
					
						<line style="fill:none;stroke:#184347;stroke-width:0.5;stroke-miterlimit:10;" x1="267.095" y1="286.621" x2="399.399" y2="286.621"/>
				</g>
				<g>
					<g>
						<rect x="399.068" y="311.835" style="fill:#CA791E;" width="65.499" height="56.601"/>
						<rect x="425.103" y="311.835" style="fill:#EA9633;" width="13.429" height="13.656"/>
						<rect x="403.367" y="356.52" style="fill:#F8E4CF;" width="8.093" height="8.297"/>
						<rect x="414.495" y="358.67" style="fill:#374A3A;" width="6.148" height="6.148"/>
					</g>
					<g>
						<rect x="399.068" y="198.633" style="fill:#CA791E;" width="65.499" height="56.601"/>
						<rect x="425.103" y="198.633" style="fill:#EA9633;" width="13.429" height="13.656"/>
						<rect x="403.367" y="243.318" style="fill:#F8E4CF;" width="8.093" height="8.297"/>
						<rect x="414.495" y="245.468" style="fill:#374A3A;" width="6.148" height="6.148"/>
					</g>
					<g>
						<rect x="388.661" y="255.234" style="fill:#EA9633;" width="65.499" height="56.601"/>
						<rect x="414.696" y="255.234" style="fill:#CA791E;" width="13.429" height="13.656"/>
						<rect x="392.96" y="299.919" style="fill:#F8E4CF;" width="8.093" height="8.297"/>
						<rect x="404.088" y="302.069" style="fill:#374A3A;" width="6.148" height="6.148"/>
					</g>
				</g>
			</g>
			<g>
				<rect x="252.511" y="368.662" style="fill:#374A3A;" width="226.642" height="8.496"/>
				<path style="fill:#374A3A;" d="M370.722,184.266c0,2.701-2.19,4.89-4.89,4.89c-2.701,0-4.891-2.19-4.891-4.89
					c0-2.701,2.19-4.891,4.891-4.891C368.533,179.375,370.722,181.565,370.722,184.266z"/>
				<g>
					<polygon style="fill:none;stroke:#374A3A;stroke-miterlimit:10;" points="257.753,371.464 365.832,184.266 473.91,371.464 
											"/>
					<line style="fill:none;stroke:#374A3A;stroke-miterlimit:10;" x1="365.832" y1="184.266" x2="365.832" y2="0"/>
				</g>
			</g>
		</g>
		<g>
			<g>
				<g>
					<rect x="149.511" y="101.388" style="fill:#CA791E;" width="96.064" height="128.985"/>
					<g>
						
							<line style="fill:none;stroke:#EA9633;stroke-width:0.5;stroke-miterlimit:10;" x1="197.543" y1="101.388" x2="197.543" y2="230.373"/>
						<g>
							
								<line style="fill:none;stroke:#EA9633;stroke-width:0.5;stroke-miterlimit:10;" x1="245.575" y1="143.701" x2="149.511" y2="143.701"/>
							
								<line style="fill:none;stroke:#EA9633;stroke-width:0.5;stroke-miterlimit:10;" x1="245.575" y1="188.06" x2="149.511" y2="188.06"/>
						</g>
					</g>
					<g>
						<g>
							<rect x="215.424" y="132.566" style="fill:#374A3A;" width="4.751" height="5.77"/>
							<rect x="223.23" y="132.566" style="fill:#F8E4CF;" width="4.751" height="5.77"/>
						</g>
						<g>
							<rect x="168.358" y="132.566" style="fill:#374A3A;" width="4.751" height="5.77"/>
							<rect x="176.164" y="132.566" style="fill:#F8E4CF;" width="4.751" height="5.77"/>
						</g>
						<g>
							<rect x="215.424" y="177.583" style="fill:#374A3A;" width="4.751" height="5.77"/>
							<rect x="223.23" y="177.583" style="fill:#F8E4CF;" width="4.751" height="5.77"/>
						</g>
						<g>
							<rect x="168.358" y="177.583" style="fill:#374A3A;" width="4.751" height="5.77"/>
							<rect x="176.164" y="177.583" style="fill:#F8E4CF;" width="4.751" height="5.77"/>
						</g>
						<g>
							<rect x="215.424" y="222.601" style="fill:#374A3A;" width="4.751" height="5.77"/>
							<rect x="223.23" y="222.601" style="fill:#F8E4CF;" width="4.751" height="5.77"/>
						</g>
						<g>
							<rect x="168.358" y="222.601" style="fill:#374A3A;" width="4.751" height="5.77"/>
							<rect x="176.164" y="222.601" style="fill:#F8E4CF;" width="4.751" height="5.77"/>
						</g>
					</g>
					<rect x="186.058" y="101.388" style="fill:#374A3A;" width="22.969" height="27.036"/>
				</g>
				<g>
					<rect x="61.618" y="72.598" style="fill:#EA9633;" width="87.901" height="75.96"/>
					<rect x="96.558" y="72.598" style="fill:#CA791E;" width="18.022" height="18.327"/>
					<rect x="67.387" y="132.566" style="fill:#F8E4CF;" width="10.86" height="11.135"/>
					<rect x="82.321" y="135.451" style="fill:#374A3A;" width="8.25" height="8.25"/>
				</g>
				<g>
					<g>
						<rect x="42.468" y="148.557" style="fill:#FFAC48;" width="132.304" height="81.815"/>
						<rect x="42.468" y="157.761" style="fill:#EA9633;" width="132.304" height="63.408"/>
						<g>
							
								<line style="fill:none;stroke:#FFAC48;stroke-width:2;stroke-miterlimit:10;" x1="48.221" y1="157.761" x2="48.221" y2="221.169"/>
							
								<line style="fill:none;stroke:#FFAC48;stroke-width:2;stroke-miterlimit:10;" x1="56.274" y1="157.761" x2="56.274" y2="221.169"/>
							
								<line style="fill:none;stroke:#FFAC48;stroke-width:2;stroke-miterlimit:10;" x1="64.327" y1="157.761" x2="64.327" y2="221.169"/>
							
								<line style="fill:none;stroke:#FFAC48;stroke-width:2;stroke-miterlimit:10;" x1="72.381" y1="157.761" x2="72.381" y2="221.169"/>
							
								<line style="fill:none;stroke:#FFAC48;stroke-width:2;stroke-miterlimit:10;" x1="80.434" y1="157.761" x2="80.434" y2="221.169"/>
							
								<line style="fill:none;stroke:#FFAC48;stroke-width:2;stroke-miterlimit:10;" x1="88.487" y1="157.761" x2="88.487" y2="221.169"/>
							
								<line style="fill:none;stroke:#FFAC48;stroke-width:2;stroke-miterlimit:10;" x1="96.54" y1="157.761" x2="96.54" y2="221.169"/>
							
								<line style="fill:none;stroke:#FFAC48;stroke-width:2;stroke-miterlimit:10;" x1="104.594" y1="157.761" x2="104.594" y2="221.169"/>
							
								<line style="fill:none;stroke:#FFAC48;stroke-width:2;stroke-miterlimit:10;" x1="112.647" y1="157.761" x2="112.647" y2="221.169"/>
							
								<line style="fill:none;stroke:#FFAC48;stroke-width:2;stroke-miterlimit:10;" x1="120.7" y1="157.761" x2="120.7" y2="221.169"/>
							
								<line style="fill:none;stroke:#FFAC48;stroke-width:2;stroke-miterlimit:10;" x1="128.753" y1="157.761" x2="128.753" y2="221.169"/>
							
								<line style="fill:none;stroke:#FFAC48;stroke-width:2;stroke-miterlimit:10;" x1="136.807" y1="157.761" x2="136.807" y2="221.169"/>
							
								<line style="fill:none;stroke:#FFAC48;stroke-width:2;stroke-miterlimit:10;" x1="144.86" y1="157.761" x2="144.86" y2="221.169"/>
							
								<line style="fill:none;stroke:#FFAC48;stroke-width:2;stroke-miterlimit:10;" x1="152.913" y1="157.761" x2="152.913" y2="221.169"/>
							
								<line style="fill:none;stroke:#FFAC48;stroke-width:2;stroke-miterlimit:10;" x1="160.966" y1="157.761" x2="160.966" y2="221.169"/>
							
								<line style="fill:none;stroke:#FFAC48;stroke-width:2;stroke-miterlimit:10;" x1="169.02" y1="157.761" x2="169.02" y2="221.169"/>
						</g>
					</g>
					<text transform="matrix(1 0 0 1 51.9649 198.6338)" style="fill:#F8E4CF; font-family:'Poppins-Black'; font-size:28.5086px;">IMPORT</text>
				</g>
			</g>
			<g>
				<rect x="30.701" y="230.373" style="fill:#374A3A;" width="226.642" height="8.496"/>
				<path style="fill:#374A3A;" d="M148.912,45.977c0,2.701-2.19,4.891-4.891,4.891c-2.701,0-4.891-2.19-4.891-4.891
					s2.19-4.89,4.891-4.89C146.723,41.086,148.912,43.276,148.912,45.977z"/>
				<g>
					<polygon style="fill:none;stroke:#374A3A;stroke-miterlimit:10;" points="35.943,233.175 144.021,45.977 252.1,233.175 					
						"/>
					<line style="fill:none;stroke:#374A3A;stroke-miterlimit:10;" x1="144.021" y1="45.977" x2="144.021" y2="0"/>
				</g>
			</g>
		</g>
		<g>
			<g>
				<rect x="40.276" y="378.841" style="fill:#EA9633;" width="96.61" height="72.884"/>
				<rect x="107.89" y="378.841" style="fill:#CA791E;" width="28.997" height="72.884"/>
				<rect x="66.185" y="378.841" style="fill:#374A3A;" width="14.933" height="16.692"/>
				<rect x="118.015" y="378.841" style="fill:#374A3A;" width="8.746" height="16.692"/>
				<g>
					<polygon style="fill:#374A3A;" points="83.548,439.453 78.76,433.979 73.972,439.453 76.427,439.453 76.427,444.706 
						81.093,444.706 81.093,439.453 					"/>
					<polygon style="fill:#374A3A;" points="73.33,439.453 68.542,433.979 63.754,439.453 66.209,439.453 66.209,444.706 
						70.875,444.706 70.875,439.453 					"/>
				</g>
			</g>
			<g>
				<rect x="78.456" y="305.957" style="fill:#EA9633;" width="96.61" height="72.884"/>
				<rect x="146.069" y="305.957" style="fill:#CA791E;" width="28.997" height="72.884"/>
				<rect x="104.364" y="305.957" style="fill:#374A3A;" width="14.933" height="16.692"/>
				<rect x="156.195" y="305.957" style="fill:#374A3A;" width="8.746" height="16.692"/>
				<g>
					<polygon style="fill:#374A3A;" points="121.728,366.57 116.94,361.096 112.151,366.57 114.607,366.57 114.607,371.822 
						119.272,371.822 119.272,366.57 					"/>
					<polygon style="fill:#374A3A;" points="111.51,366.57 106.721,361.096 101.933,366.57 104.389,366.57 104.389,371.822 
						109.054,371.822 109.054,366.57 					"/>
				</g>
			</g>
			<g>
				<rect x="136.727" y="378.841" style="fill:#EA9633;" width="96.61" height="72.884"/>
				<rect x="204.34" y="378.841" style="fill:#CA791E;" width="28.997" height="72.884"/>
				<rect x="162.635" y="378.841" style="fill:#374A3A;" width="14.933" height="16.692"/>
				<rect x="214.466" y="378.841" style="fill:#374A3A;" width="8.746" height="16.692"/>
				<g>
					<polygon style="fill:#374A3A;" points="179.999,439.453 175.21,433.979 170.422,439.453 172.878,439.453 172.878,444.706 
						177.543,444.706 177.543,439.453 					"/>
					<polygon style="fill:#374A3A;" points="169.781,439.453 164.992,433.979 160.204,439.453 162.66,439.453 162.66,444.706 
						167.325,444.706 167.325,439.453 					"/>
				</g>
			</g>
		</g>
		<g>
			<g>
				<line style="fill:none;stroke:#DEC5AB;stroke-miterlimit:10;" x1="251" y1="48.663" x2="251" y2="56.663"/>
				<line style="fill:none;stroke:#DEC5AB;stroke-miterlimit:10;" x1="255" y1="52.663" x2="247" y2="52.663"/>
			</g>
			<g>
				<line style="fill:none;stroke:#DEC5AB;stroke-miterlimit:10;" x1="48.221" y1="101.441" x2="48.221" y2="109.441"/>
				<line style="fill:none;stroke:#DEC5AB;stroke-miterlimit:10;" x1="52.221" y1="105.441" x2="44.221" y2="105.441"/>
			</g>
			<g>
				<line style="fill:none;stroke:#DEC5AB;stroke-miterlimit:10;" x1="393.647" y1="120.327" x2="393.647" y2="128.327"/>
				<line style="fill:none;stroke:#DEC5AB;stroke-miterlimit:10;" x1="397.647" y1="124.327" x2="389.647" y2="124.327"/>
			</g>
			<g>
				<line style="fill:none;stroke:#DEC5AB;stroke-miterlimit:10;" x1="468.568" y1="281.969" x2="468.568" y2="289.969"/>
				<line style="fill:none;stroke:#DEC5AB;stroke-miterlimit:10;" x1="472.568" y1="285.969" x2="464.568" y2="285.969"/>
			</g>
			<g>
				<line style="fill:none;stroke:#DEC5AB;stroke-miterlimit:10;" x1="389.647" y1="400.377" x2="389.647" y2="408.377"/>
				<line style="fill:none;stroke:#DEC5AB;stroke-miterlimit:10;" x1="393.647" y1="404.377" x2="385.647" y2="404.377"/>
			</g>
			<g>
				<line style="fill:none;stroke:#DEC5AB;stroke-miterlimit:10;" x1="61.618" y1="325.495" x2="61.618" y2="333.495"/>
				<line style="fill:none;stroke:#DEC5AB;stroke-miterlimit:10;" x1="65.618" y1="329.495" x2="57.618" y2="329.495"/>
			</g>
			<circle style="fill:none;stroke:#DEC5AB;stroke-miterlimit:10;" cx="195.719" cy="70.833" r="3"/>
			<circle style="fill:none;stroke:#DEC5AB;stroke-miterlimit:10;" cx="431.818" cy="164.696" r="3"/>
			<circle style="fill:none;stroke:#DEC5AB;stroke-miterlimit:10;" cx="42.468" cy="124.327" r="3"/>
			<circle style="fill:none;stroke:#DEC5AB;stroke-miterlimit:10;" cx="48.221" cy="352.031" r="3"/>
			<circle style="fill:none;stroke:#DEC5AB;stroke-miterlimit:10;" cx="361.434" cy="433.979" r="3"/>
		</g>
		<g>
			<g>
				<path style="fill:#A64912;" d="M256.082,260.385c0,0,6.844-3.217,7.744-3.95c0.9-0.733,0.752-5.775,1.546-7.216
					s4.757-5.583,5.838-6.124c1.081-0.54,9.906-0.54,10.986,0c1.081,0.54-5.223,7.925-5.763,9.185
					c-0.54,1.261-4.683,7.203-5.943,7.744c-1.261,0.541-8.814,5.944-8.814,5.944L256.082,260.385z"/>
				<g>
					<path style="fill:#602116;" d="M305.844,264.268c0.137,0.773-0.379,1.51-1.151,1.647l-31.173,5.521
						c-0.773,0.137-1.51-0.379-1.647-1.151l-7.847-44.308c-0.137-0.773,0.379-1.51,1.151-1.647l31.173-5.521
						c0.773-0.137,1.51,0.379,1.647,1.151L305.844,264.268z"/>
					<g>
						
							<rect x="270.676" y="223.068" transform="matrix(0.9847 -0.1744 0.1744 0.9847 -37.8002 53.292)" style="fill:#F8E4CF;" width="27.315" height="37.326"/>
						<g>
							
								<rect x="289.99" y="226.228" transform="matrix(0.9847 -0.1744 0.1744 0.9847 -35.2091 54.2795)" style="fill:#DEC5AB;" width="2.487" height="2.487"/>
							
								<rect x="270.794" y="229.148" transform="matrix(0.9847 -0.1744 0.1744 0.9847 -35.7999 52.1388)" style="fill:#DEC5AB;" width="15.948" height="1.243"/>
							<path style="fill:none;stroke:#BD3E00;stroke-width:0.5;stroke-miterlimit:10;" d="M290.714,227.564l0.612,0.433
								c0,0,0.617-1.643,2.545-2.976"/>
						</g>
						<g>
							
								<rect x="290.961" y="231.708" transform="matrix(0.9847 -0.1744 0.1744 0.9847 -36.15 54.5328)" style="fill:#DEC5AB;" width="2.487" height="2.487"/>
							
								<rect x="271.765" y="234.628" transform="matrix(0.9847 -0.1744 0.1744 0.9847 -36.7397 52.3901)" style="fill:#DEC5AB;" width="15.948" height="1.243"/>
							<path style="fill:none;stroke:#BD3E00;stroke-width:0.5;stroke-miterlimit:10;" d="M291.685,233.044l0.612,0.433
								c0,0,0.617-1.642,2.545-2.976"/>
						</g>
						<g>
							
								<rect x="291.932" y="237.189" transform="matrix(0.9847 -0.1744 0.1744 0.9847 -37.0835 54.7728)" style="fill:#DEC5AB;" width="2.487" height="2.487"/>
							
								<rect x="272.735" y="240.108" transform="matrix(0.9847 -0.1744 0.1744 0.9847 -37.6817 52.6453)" style="fill:#DEC5AB;" width="15.948" height="1.243"/>
							<path style="fill:none;stroke:#BD3E00;stroke-width:0.5;stroke-miterlimit:10;" d="M292.656,238.524l0.612,0.433
								c0,0,0.617-1.643,2.545-2.976"/>
						</g>
						<g>
							
								<rect x="292.902" y="242.669" transform="matrix(0.9847 -0.1744 0.1744 0.9847 -38.0331 55.0416)" style="fill:#DEC5AB;" width="2.487" height="2.487"/>
							
								<rect x="273.706" y="245.589" transform="matrix(0.9847 -0.1744 0.1744 0.9847 -38.6225 52.8986)" style="fill:#DEC5AB;" width="15.948" height="1.243"/>
							<path style="fill:none;stroke:#BD3E00;stroke-width:0.5;stroke-miterlimit:10;" d="M293.626,244.004l0.612,0.433
								c0,0,0.617-1.643,2.545-2.976"/>
						</g>
						<g>
							
								<rect x="293.873" y="248.149" transform="matrix(0.9847 -0.1744 0.1744 0.9847 -38.9741 55.2949)" style="fill:#DEC5AB;" width="2.487" height="2.487"/>
							
								<rect x="274.677" y="251.069" transform="matrix(0.9847 -0.1744 0.1744 0.9847 -39.5634 53.1519)" style="fill:#DEC5AB;" width="15.948" height="1.243"/>
							<path style="fill:none;stroke:#BD3E00;stroke-width:0.5;stroke-miterlimit:10;" d="M294.597,249.484l0.612,0.433
								c0,0,0.617-1.643,2.545-2.976"/>
						</g>
					</g>
					<g>
						<path style="fill:#BD3E00;" d="M290.261,218.163l-7.448,1.319c-0.229-1.296-1.466-2.16-2.761-1.93
							c-1.296,0.229-2.16,1.466-1.93,2.761l-7.448,1.319c-0.773,0.137-1.288,0.874-1.151,1.647l0.296,1.672
							c0.137,0.773,0.874,1.288,1.647,1.151l19.589-3.469c0.773-0.137,1.288-0.874,1.151-1.647l-0.296-1.672
							C291.771,218.541,291.033,218.026,290.261,218.163z"/>
						<path style="fill:#602116;" d="M281.166,219.774c0.068,0.386-0.189,0.755-0.576,0.824c-0.386,0.068-0.755-0.189-0.823-0.576
							c-0.068-0.386,0.189-0.755,0.576-0.823C280.729,219.129,281.098,219.387,281.166,219.774z"/>
					</g>
				</g>
				<path style="fill:#D06F32;" d="M262.825,257.045c3.049,0.138,7.794,0.285,7.933-0.129c0.205-0.611,7.028-6.623,5.385-7.697
					c-1.644-1.074-5.188,2.078-6.94,2.078c-1.752,0-3.829-2.078-3.829-2.078c-0.795,1.441-0.646,6.484-1.546,7.216
					C263.664,256.567,263.302,256.783,262.825,257.045z"/>
			</g>
			<g>
				<path style="fill:#602116;" d="M175.535,437.459l-1.2,8.589l13.662,14.928l-1.228,2.989l-29.887-12.278
					c0,0,1.438-4.067,4.516-8.158c3.078-4.092,5.769-9.507,5.769-9.507L175.535,437.459z"/>
				<path style="fill:#BD3E00;" d="M157.998,449.117c-0.752,1.541-1.116,2.569-1.116,2.569l29.887,12.278l1.064-2.59
					L157.998,449.117z"/>
			</g>
			<g>
				<path style="fill:#BD3E00;" d="M192.71,262.42c0,0-12.255,1.99-15.197,4.067c-2.942,2.077-13.845,28.382-15.056,33.401
					c-1.211,5.019,1.211,11.595,7.961,17.998c6.749,6.403,13.326,8.826,13.326,8.826l5.538-6.23c0,0-9.518-15.056-8.999-18.69
					c0.519-3.634,2.077-7.225,2.077-7.225s10.319,18.993,10.351,20.897c0.032,1.904-4.813,18.864-4.986,22.671
					c-0.173,3.807,1.731,12.98,1.731,12.98s-5.019,32.708-7.269,41.534c-2.25,8.826-18.69,42.4-18.518,45.169
					c0.173,2.769,11.366,8.48,13.817,7.615c2.451-0.865,28.41-39.631,30.66-44.13c2.25-4.5,4.673-36.17,4.673-36.17
					s8.307,35.477,8.307,38.419c0,2.942-2.423,40.154-1.731,41.969c0.692,1.815,14.018,3.776,15.922,2.19
					c1.904-1.586,10.384-49.524,10.038-56.446c-0.346-6.922-14.883-77.704-15.229-80.819c-0.346-3.115-0.692-21.574-1.731-27.112
					c0,0,8.826,2.769,13.152,1.038c4.326-1.731,23.19-16.153,26.478-20.912l-6.018-7.69c0,0-19.249,8.814-23.403,8.382
					c-4.153-0.433-22.628-5.278-26.11-5.625c-3.483-0.346-9.021,3.894-9.021,3.894H192.71z"/>
				<g>
					
						<line style="fill:none;stroke:#881800;stroke-width:0.5;stroke-miterlimit:10;" x1="187.997" y1="318.395" x2="181.414" y2="325.661"/>
					
						<line style="fill:none;stroke:#881800;stroke-width:0.5;stroke-miterlimit:10;" x1="258.945" y1="257.135" x2="266.048" y2="265.723"/>
					<path style="fill:none;stroke:#881800;stroke-width:0.5;stroke-miterlimit:10;" d="M238.603,264.151
						c0,0-4.846,5.537-2.596,14.753"/>
					<path style="fill:none;stroke:#881800;stroke-width:0.5;stroke-miterlimit:10;" d="M180.345,302.871c0,0-7.398-1.77-12.697,0"
						/>
					<path style="fill:none;stroke:#881800;stroke-width:0.5;stroke-miterlimit:10;" d="M182.359,294.566
						c0,0,2.079-2.267,4.587-1.847"/>
				</g>
			</g>
			<g>
				<path style="fill:#602116;" d="M231.59,443.182l2.154,8.401l18.309,8.616v3.231h-32.311c0,0-0.215-4.308,1.077-9.262
					c1.292-4.954,1.723-10.986,1.723-10.986H231.59z"/>
				<path style="fill:#BD3E00;" d="M219.798,460.629c-0.11,1.711-0.056,2.8-0.056,2.8h32.311v-2.8H219.798z"/>
			</g>
			<g>
				<g>
					<path style="fill:#881800;" d="M230.123,310.445c-0.346-3.115-0.692-21.574-1.731-27.112c0,0-5.365-18.231-19.383-24.115l0,0
						c-1.635,0.653-3.225,1.616-4.281,2.319c0.007,0.005,7.743,4.989,9.299,12.409l-17.306,3.098c0,0-5.532-8.437-10.882-13.285
						c-2.652,0.595-5.46,1.338-7.211,2.122l0,0c0,0,5.113,5.798,7.709,13.413c2.596,7.615,1.904,15.95-3.202,16.715
						c2.399,4.459,9.546,17.87,9.573,19.455c0.032,1.904-4.813,18.864-4.986,22.671c-0.173,3.807,1.731,12.98,1.731,12.98
						s-5.019,32.708-7.269,41.534c-2.25,8.826-18.69,42.4-18.517,45.169c0.173,2.769,11.366,8.48,13.817,7.615
						c2.451-0.865,28.41-39.631,30.66-44.13c2.25-4.5,4.673-36.17,4.673-36.17s8.307,35.477,8.307,38.419
						c0,2.942-2.423,40.154-1.731,41.969c0.692,1.815,14.018,3.776,15.922,2.19c1.904-1.586,10.384-49.524,10.037-56.446
						C245.007,384.341,230.47,313.56,230.123,310.445z"/>
					<g>
						<path style="fill:none;stroke:#602116;stroke-width:0.5;stroke-miterlimit:10;" d="M200.184,283.333
							c-0.671,0.491,1.904,12.402,2.942,13.094c1.038,0.692,9.691,2.25,11.076,1.731c1.385-0.519,7.096-4.846,7.096-6.403
							c0-1.558-3.634-12.287-4.326-12.806C216.279,278.428,201.049,282.699,200.184,283.333z"/>
						<path style="fill:none;stroke:#602116;stroke-width:0.5;stroke-miterlimit:10;" d="M212.817,365.132
							c0.754-8.777,2.273-18.863,2.273-18.863l10.707-10.124"/>
						<path style="fill:none;stroke:#602116;stroke-width:0.5;stroke-miterlimit:10;" d="M185.809,294.566
							c0,0,8.856,15.703,9.356,19.165c0.501,3.462,0.779,7.417,0,11.929c-0.779,4.512-3.894,14.636-3.115,18.011
							c0.779,3.375,0.779,8.359,0.779,8.359s-3.953,39.146-4.832,42.78c-0.879,3.634-22.685,45.688-22.685,45.688"/>
						<path style="fill:none;stroke:#602116;stroke-width:0.5;stroke-miterlimit:10;" d="M214.063,353.755
							c0,0,10.049,37.847,10.632,41.658c0.583,3.811-2.275,51.585-2.275,51.585"/>
					</g>
				</g>
				<path style="fill:#602116;" d="M230.123,310.445c-0.058-0.526-0.117-1.498-0.179-2.764c-12.353,11.458-32.666,6.91-38.082,5.417
					c0.521,1.179,0.842,2.034,0.848,2.366c0.008,0.499-0.32,2.038-0.81,4.099c3.454,0.862,9.183,1.98,15.694,1.98
					c7.534,0,16.095-1.512,23.34-6.646C230.462,312.444,230.169,310.854,230.123,310.445z"/>
			</g>
			<path style="fill:#D06F32;" d="M205.513,328.251c-0.572-0.883-5.464-3.635-6.397-4.166c-0.933-0.53-8.079-0.177-9.448-1.06
				c-0.365-0.236-0.864-0.765-1.396-1.409l-4.102,4.615c1.065,1.424,2.077,2.803,2.273,3.155c0.442,0.795,8.835,8.57,9.508,7.952
				c0.672-0.618-1.981-4.902-1.872-5.356s7.827,4.737,8.092,3.765c0.265-0.972-5.743-5.301-5.213-5.743
				c0.53-0.442,8.482,3.623,8.045,2.297c-0.437-1.325-6.896-4.683-6.366-5.124C199.166,326.736,206.085,329.135,205.513,328.251z"/>
			<g>
				<path style="fill:#D06F32;" d="M192.71,262.42c0,0-6.89-26.478-7.669-29.593c-0.779-3.115,12.69-8.835,17.393-7.904
					c4.703,0.932,7.788,6.865,9.086,12.317c1.298,5.451,1.298,11.422,0,12.46c-1.298,1.038-10.124,4.154-10.124,4.154l2.077,8.566
					C203.472,262.42,198.822,266.314,192.71,262.42z"/>
				<path style="fill:#0C2109;" d="M190.483,253.856c0,0,1.849-0.868,2.227-2.079c0.378-1.211,0.898-5.711,0.898-5.711
					s-4.326-2.769-3.98-6.403c0.346-3.634,4.846-2.077,4.846-2.077s4.278-0.865,4.278-6.23c0,0,8.529-0.828,9.394-6.534
					c0.865-5.706-1.904-4.34-8.134-2.119c-6.23,2.22-14.883,6.403-16.614,7.788C181.667,231.875,189.102,254.769,190.483,253.856z"
					/>
				<g>
					<path style="fill:#881800;" d="M198.751,223.167l-11.332,24.725c0,0-8.709-4.941-8.788-7.71
						c-0.079-2.769,6.295-16.669,8.213-18.344C188.762,220.163,198.751,223.167,198.751,223.167z"/>
					<path style="fill:#602116;" d="M193.929,233.688c0,0,1.139-15.138,4.822-18.254c3.683-3.115,3.166,6.584,3.166,6.584
						l-3.166,1.148L193.929,233.688z"/>
				</g>
			</g>
		</g>
	</g>
</g>
</svg>
