<?xml version="1.0" encoding="utf-8"?>
<!-- Generator: Adobe Illustrator 27.5.0, SVG Export Plug-In . SVG Version: 6.00 Build 0)  -->
<svg version="1.1" xmlns="http://www.w3.org/2000/svg" xmlns:xlink="http://www.w3.org/1999/xlink" x="0px" y="0px"
	 viewBox="0 0 3710 3710" style="enable-background:new 0 0 3710 3710;" xml:space="preserve">
<g id="Background">
	<g>
		<g>
			<rect style="fill:#FFFFFF;" width="3710" height="3710"/>
		</g>
	</g>
</g>
<g id="Illustration">
	<g>
		<linearGradient id="SVGID_1_" gradientUnits="userSpaceOnUse" x1="3572.4885" y1="4049.6006" x2="1117.0601" y2="1000.1125">
			<stop  offset="0" style="stop-color:#DAE3FE"/>
			<stop  offset="1" style="stop-color:#E9EFFD"/>
		</linearGradient>
		<path style="fill:url(#SVGID_1_);" d="M2895.892,2847.748c-56.34,59.417-109.649,97.734-151.767,128.007
			c-495.091,355.857-1080.914,252.127-1205.419,226.794c-183.854-37.407-539.238-109.715-796.175-412.397
			c-388.724-457.934-328.194-1179.396-26.673-1655.644c55.153-87.114,346.486-570.615,938.62-648.154
			c358.353-46.925,776.077,47.718,1078.582,301.601C3368.043,1320.88,3322.839,2397.482,2895.892,2847.748z"/>
		<g>
			<path style="fill:#91B3FA;" d="M847.951,1934.365c6.676-176.141,20.428-876.605-157.835-1320.495
				c-12.728-31.696-60.284-39.576-74.861-8.895c-84.572,178.008-368.642,729.024,201.254,1341.482
				C827.478,1958.246,847.345,1950.36,847.951,1934.365z"/>
			<path style="opacity:0.24;fill:#FFFFFF;" d="M819.498,1937.281c-1.499-1.112-2.71-2.644-3.437-4.508
				c-133.178-343.05-174.284-622.116-185.312-795.818c-11.984-188.698,7.359-294.584,8.19-299c1.042-5.553,6.389-9.207,11.94-8.163
				c5.553,1.026,9.209,6.387,8.172,11.937c-0.794,4.25-76.617,432.716,176.089,1083.634c2.043,5.272-0.568,11.197-5.836,13.243
				C825.901,1939.928,822.226,1939.305,819.498,1937.281z"/>
		</g>
		<g style="opacity:0.84;">
			<path style="fill:#BDD0FB;" d="M983.108,2158.328c14.41,21.624,46.196,21.517,60.701-0.016
				c80.039-118.814,275.96-475.253,131.891-948.777c-121.66-399.872-149.661-628.23-155.195-732.771
				c-1.17-22.106-29.864-29.896-42.043-11.426C844.089,669.098,460.957,1374.753,983.108,2158.328z"/>
			<path style="opacity:0.24;fill:#FFFFFF;" d="M1015.102,2149.704c-3.525-2.19-5.594-6.337-4.929-10.695
				c0.956-6.234,93.858-629.952-49.135-1189.349c-1.461-5.715,1.989-11.536,7.705-12.997c5.717-1.453,11.539,1.985,12.997,7.705
				c144.094,563.716,50.516,1191.601,49.556,1197.876c-0.898,5.834-6.349,9.836-12.179,8.94
				C1017.645,2150.958,1016.292,2150.443,1015.102,2149.704z"/>
		</g>
		<g>
			
				<ellipse transform="matrix(0.0439 -0.999 0.999 0.0439 136.9153 3364.1875)" style="fill:#7D97F4;" cx="1826.017" cy="1610.565" rx="1063.506" ry="1147.95"/>
			<ellipse style="opacity:0.11;fill:#FFFFFF;" cx="1763.887" cy="1533.834" rx="900.785" ry="850.954"/>
			<g style="opacity:0.68;">
				<path style="fill:#FFFFFF;" d="M2119.279,1615.702c-0.276,187.573-13.139,375.529-46.195,560.446
					c-8.369,46.191-18.07,92.161-29.63,137.694c-11.595,45.515-24.981,90.636-41.371,134.75c-16.527,44-35.71,87.367-61.721,127.002
					c-13.108,19.673-27.976,38.523-46.324,54.03c-9.171,7.704-19.243,14.536-30.322,19.542c-11.056,4.973-23.139,8.121-35.402,8.34
					c-12.247,0.358-24.513-2.039-35.787-6.58c-11.318-4.496-21.634-11.021-31.027-18.47c-18.786-15.024-33.981-33.667-47.323-53.184
					c-26.473-39.353-45.916-82.632-62.616-126.563c-16.597-44.039-30.115-89.124-41.811-134.611
					c-11.675-45.503-21.474-91.452-29.912-137.629c-16.84-92.372-28.325-185.633-36.075-279.15
					c-7.695-93.532-11.552-187.363-12.026-281.209c-0.231-46.917,1.05-93.825,2.717-140.705c1.757-46.879,4.339-93.728,7.79-140.513
					c6.94-93.559,17.304-186.91,32.712-279.493c7.731-46.281,16.746-92.366,27.589-138.044
					c10.871-45.662,23.504-90.962,39.175-135.28c7.876-22.139,16.488-44.04,26.309-65.427c9.806-21.382,20.78-42.298,33.678-62.073
					c12.927-19.688,27.787-38.48,46.292-53.523c9.251-7.456,19.443-13.943,30.609-18.338c11.122-4.452,23.189-6.706,35.193-6.25
					c12.011,0.342,23.852,3.336,34.776,8.148c10.94,4.835,20.992,11.409,30.221,18.861c18.459,15,33.737,33.34,47.29,52.598
					c26.946,38.786,47.26,81.56,64.857,125.081c17.468,43.641,31.89,88.413,44.453,133.646
					c12.518,45.255,23.118,91.015,32.291,137.043C2103.992,1240.118,2118.738,1428.096,2119.279,1615.702z M2105.396,1615.702
					c0.172-93.463-3.38-186.95-11.148-280.088c-7.658-93.135-19.259-186.002-36.542-277.841
					c-8.63-45.913-18.682-91.566-30.642-136.714c-12.002-45.125-25.856-89.789-42.723-133.298
					c-16.987-43.385-36.688-86.01-62.829-124.52c-13.14-19.12-27.963-37.278-45.75-52.051c-8.89-7.342-18.542-13.794-28.987-18.546
					c-10.434-4.694-21.672-7.772-33.102-8.072c-11.422-0.362-22.829,1.936-33.395,6.284c-10.603,4.305-20.337,10.639-29.211,17.952
					c-17.754,14.75-32.139,33.304-44.642,52.816c-12.479,19.596-23.103,40.381-32.578,61.653
					c-9.491,21.277-17.795,43.092-25.374,65.151c-15.075,44.162-27.146,89.341-37.465,134.887
					c-10.291,45.564-18.765,91.541-25.96,137.711c-14.337,92.363-23.648,185.482-29.542,278.773
					c-5.954,93.303-8.01,186.818-7.841,280.292c-0.247,93.458,2.875,186.943,9.821,280.148
					c7.001,93.19,17.725,186.145,33.774,278.187c8.042,46.011,17.437,91.787,28.691,137.092
					c11.273,45.288,24.354,90.152,40.455,133.889c16.189,43.621,35.118,86.537,60.702,125.19
					c12.875,19.165,27.526,37.343,45.28,51.754c8.872,7.15,18.528,13.337,28.965,17.573c10.406,4.247,21.571,6.608,32.758,6.23
					c11.183-0.288,22.202-3.241,32.432-7.934c10.245-4.725,19.695-11.223,28.374-18.633c17.37-14.908,31.708-33.314,44.357-52.645
					c25.136-38.959,43.793-81.971,59.8-125.665c15.884-43.818,28.821-88.719,39.979-134.035
					c11.127-45.335,20.409-91.133,28.372-137.156c15.941-92.06,26.532-185.026,33.574-278.215
					C2102.138,1802.677,2105.433,1709.183,2105.396,1615.702z"/>
				<path style="fill:#FFFFFF;" d="M2592.468,1615.702c-0.649,120.792-16.174,241.637-48.51,358.122
					c-32.9,116.218-82.496,228.022-149.829,328.401c-33.671,50.135-71.816,97.325-114.439,140.14
					c-42.604,42.802-89.723,81.215-140.87,113.406c-51.194,32.067-106.487,57.738-164.367,75.153
					c-57.846,17.458-118.234,26.564-178.677,26.625c-60.442-0.006-120.847-9.057-178.725-26.467
					c-57.911-17.368-113.249-42.997-164.495-75.032c-51.2-32.158-98.388-70.536-141.062-113.321
					c-42.694-42.796-80.915-89.977-114.661-140.112c-67.469-100.392-117.169-212.245-150.223-328.52
					c-16.27-58.244-28.361-117.639-36.371-177.562c-7.967-59.934-11.971-120.372-12.245-180.833
					c0.313-60.462,4.353-120.895,12.357-180.819c8.048-59.913,20.185-119.291,36.494-177.512
					c33.137-116.228,82.913-228.005,150.426-328.293c33.761-50.088,71.987-97.217,114.676-139.956
					c42.674-42.72,89.829-81.062,141.02-113.118c51.231-31.952,106.556-57.392,164.366-74.753
					c57.773-17.433,118.082-26.526,178.444-26.585c60.363,0.11,120.655,9.253,178.4,26.731
					c57.781,17.408,113.058,42.898,164.236,74.885c51.135,32.093,98.223,70.466,140.826,113.205
					c42.618,42.758,80.769,89.896,114.453,139.985c67.376,100.274,117.052,212.003,150.031,328.174
					C2576.13,1374.085,2591.737,1494.909,2592.468,1615.702z M2576.552,1615.702c-0.175-119.421-15.05-238.97-46.56-354.248
					c-31.684-115.1-79.391-226.22-145.069-326.151c-32.821-49.914-70.098-96.961-111.85-139.728
					c-41.768-42.7-87.903-81.332-138.359-113.442c-50.518-31.93-105.07-57.63-162.272-75.014
					c-57.173-17.396-116.865-26.541-176.667-26.74c-59.802,0.25-119.478,9.445-176.623,26.885
					c-57.172,17.43-111.678,43.181-162.141,75.145c-50.401,32.146-96.467,70.81-138.166,113.528
					c-41.68,42.786-78.883,89.843-111.628,139.757c-65.542,99.918-113.146,210.988-144.674,326.031
					c-15.707,57.587-27.079,116.308-34.785,175.465c-7.724,59.165-11.536,118.828-11.669,178.51
					c0.171,59.681,4.02,119.34,11.781,178.495c7.745,59.147,19.163,117.85,34.908,175.414
					c31.61,114.997,79.293,225.992,144.879,325.805c32.758,49.868,69.965,96.873,111.642,139.602
					c41.698,42.653,87.731,81.282,138.123,113.326c50.448,31.881,104.94,57.442,162.012,74.866
					c57.041,17.464,116.62,26.7,176.342,27.003c59.723-0.248,119.318-9.429,176.39-26.845
					c57.103-17.376,111.639-42.896,162.14-74.745c50.445-32.012,96.547-70.606,138.315-113.241
					c41.747-42.709,79.03-89.705,111.864-139.573c65.722-99.827,113.509-210.871,145.272-325.925
					C2561.338,1854.65,2576.296,1735.122,2576.552,1615.702z"/>
				<path style="fill:#FFFFFF;" d="M866.1,1205.533c-0.578-0.005-1.043-0.477-1.038-1.055c0.005-0.572,0.468-1.033,1.038-1.038
					l239.257-1.933l239.257-1.095l478.513-0.883l478.514,0.972l239.257,1.197l239.257,2.086c0.388,0.004,0.699,0.321,0.696,0.709
					c-0.003,0.383-0.314,0.693-0.696,0.696l-239.257,2.086l-239.257,1.196l-478.514,0.973l-478.513-0.884l-239.257-1.095
					L866.1,1205.533z"/>
				<path style="fill:#FFFFFF;" d="M1142.636,803.735c0.009-0.566,0.468-1.021,1.03-1.03c56.621-0.897,113.244-1.282,169.865-1.933
					l169.865-1.095c56.622-0.467,113.244-0.416,169.866-0.56l169.865-0.323l339.73,0.973l169.865,1.196
					c56.622,0.71,113.244,1.125,169.866,2.087c0.388,0.007,0.697,0.326,0.69,0.714c-0.006,0.379-0.314,0.684-0.69,0.69
					c-56.622,0.961-113.244,1.377-169.866,2.087l-169.865,1.196l-339.73,0.973l-169.865-0.323
					c-56.622-0.144-113.244-0.094-169.866-0.56l-169.865-1.095c-56.621-0.651-113.244-1.036-169.865-1.933
					C1143.089,804.789,1142.628,804.313,1142.636,803.735z"/>
				<path style="fill:#FFFFFF;" d="M782.956,1606.267c-0.578-0.004-1.042-0.477-1.039-1.054c0.004-0.573,0.468-1.034,1.039-1.038
					l260.043-1.927l260.043-1.102l520.085-0.884l520.085,0.973l260.043,1.197l260.042,2.086c0.388,0.003,0.7,0.32,0.697,0.708
					c-0.003,0.384-0.314,0.694-0.697,0.697l-260.042,2.085l-260.043,1.197l-520.085,0.973l-520.085-0.884l-260.043-1.102
					L782.956,1606.267z"/>
				<path style="fill:#FFFFFF;" d="M866.1,2004.908l239.257-1.932l239.257-1.095l478.513-0.884l478.514,0.973l239.257,1.196
					l239.257,2.087c0.388,0.004,0.699,0.321,0.696,0.709c-0.003,0.384-0.314,0.693-0.696,0.696l-239.257,2.087l-239.257,1.197
					l-478.514,0.973l-478.513-0.884l-239.257-1.095l-239.257-1.933c-0.578-0.004-1.043-0.477-1.038-1.055
					C865.067,2005.374,865.531,2004.913,866.1,2004.908z"/>
				<path style="fill:#FFFFFF;" d="M2540.491,2406.69c0,2.026-1.641,3.668-3.668,3.668h-1358.92c-2.028,0-3.668-1.642-3.668-3.668
					c0-2.026,1.64-3.668,3.668-3.668h1358.92C2538.85,2403.022,2540.491,2404.664,2540.491,2406.69z"/>
			</g>
		</g>
		<g>
			<path style="fill:#FFFFFF;" d="M895.809,1425.694c-1.234,0-2.492-0.197-3.726-0.614c-6.111-2.059-9.394-8.681-7.336-14.792
				c1.495-4.445,3.046-8.873,4.648-13.287c2.195-6.06,8.889-9.189,14.954-6.995c6.062,2.199,9.192,8.894,6.994,14.956
				c-1.537,4.244-3.029,8.507-4.472,12.782C905.23,1422.617,900.686,1425.694,895.809,1425.694z M916.904,1371.636
				c-1.586,0-3.199-0.326-4.743-1.013c-5.889-2.622-8.538-9.523-5.915-15.414c1.909-4.285,3.86-8.554,5.857-12.806
				c2.743-5.837,9.701-8.34,15.531-5.603c5.837,2.743,8.345,9.696,5.603,15.531c-1.932,4.109-3.818,8.235-5.661,12.376
				C925.64,1369.055,921.373,1371.636,916.904,1371.636z M942.748,1319.694c-1.906,0-3.841-0.468-5.629-1.453
				c-5.645-3.114-7.697-10.215-4.583-15.86c2.254-4.09,4.55-8.161,6.893-12.217c3.228-5.586,10.372-7.494,15.948-4.274
				c5.583,3.225,7.499,10.365,4.274,15.948c-2.264,3.922-4.489,7.86-6.671,11.816
				C950.852,1317.513,946.862,1319.694,942.748,1319.694z M972.752,1270.081c-2.205,0-4.433-0.624-6.414-1.927
				c-5.385-3.547-6.873-10.787-3.326-16.171c2.567-3.896,5.173-7.771,7.814-11.629c3.638-5.323,10.906-6.678,16.228-3.039
				c5.319,3.643,6.681,10.909,3.036,16.228c-2.563,3.744-5.091,7.505-7.58,11.284
				C980.266,1268.232,976.547,1270.081,972.752,1270.081z M1006.41,1222.849c-2.479,0-4.977-0.785-7.094-2.412
				c-5.117-3.923-6.082-11.253-2.16-16.368c2.834-3.694,5.704-7.37,8.606-11.029c4.01-5.054,11.355-5.894,16.401-1.891
				c5.052,4.008,5.899,11.352,1.893,16.402c-2.824,3.559-5.616,7.137-8.371,10.73
				C1013.384,1221.277,1009.918,1222.849,1006.41,1222.849z M1043.241,1178.037c-2.736,0-5.479-0.954-7.697-2.899
				c-4.847-4.253-5.329-11.629-1.075-16.474c3.068-3.498,6.169-6.977,9.3-10.438c4.332-4.784,11.71-5.148,16.489-0.826
				c4.782,4.326,5.153,11.708,0.827,16.49c-3.052,3.373-6.075,6.764-9.065,10.171
				C1049.714,1176.692,1046.486,1178.037,1043.241,1178.037z M1082.831,1135.631c-2.971,0-5.942-1.127-8.218-3.383
				c-4.58-4.538-4.612-11.93-0.075-16.51c3.274-3.301,6.573-6.585,9.896-9.849c4.603-4.516,11.99-4.45,16.512,0.153
				c4.515,4.601,4.446,11.992-0.153,16.508c-3.251,3.189-6.472,6.397-9.668,9.624
				C1088.841,1134.478,1085.835,1135.631,1082.831,1135.631z M1124.825,1095.598c-3.189,0-6.368-1.3-8.674-3.857
				c-4.316-4.788-3.935-12.17,0.854-16.487c3.449-3.112,6.922-6.205,10.42-9.279c4.831-4.252,12.212-3.783,16.476,1.062
				c4.257,4.842,3.782,12.218-1.062,16.476c-3.42,3.008-6.821,6.036-10.199,9.08
				C1130.409,1094.606,1127.61,1095.598,1124.825,1095.598z M1168.927,1057.892c-3.397,0-6.769-1.476-9.075-4.321
				c-4.059-5.008-3.293-12.36,1.717-16.422c3.609-2.925,7.235-5.831,10.88-8.715c5.052-4.003,12.401-3.147,16.398,1.907
				c4.003,5.055,3.147,12.398-1.909,16.399c-3.573,2.829-7.127,5.676-10.665,8.546
				C1174.109,1057.039,1171.51,1057.892,1168.927,1057.892z M1214.96,1022.423c-3.596,0-7.143-1.655-9.43-4.78
				c-3.808-5.202-2.678-12.507,2.524-16.315c3.759-2.751,7.534-5.481,11.323-8.192c5.248-3.753,12.538-2.536,16.287,2.707
				c3.753,5.244,2.541,12.536-2.703,16.287c-3.723,2.66-7.427,5.34-11.114,8.039
				C1219.768,1021.69,1217.351,1022.423,1214.96,1022.423z M1262.651,989.211c-3.785,0-7.495-1.837-9.743-5.228
				c-3.56-5.376-2.088-12.621,3.287-16.181c3.876-2.567,7.766-5.112,11.671-7.64c5.417-3.498,12.642-1.951,16.144,3.463
				c3.502,5.414,1.954,12.64-3.459,16.142c-3.834,2.48-7.658,4.981-11.463,7.502
				C1267.104,988.582,1264.866,989.211,1262.651,989.211z M1311.776,958.266c-3.967,0-7.837-2.024-10.026-5.678
				c-3.313-5.531-1.515-12.701,4.016-16.013c3.984-2.386,7.98-4.749,11.987-7.091c5.564-3.253,12.717-1.383,15.971,4.187
				c3.254,5.567,1.378,12.717-4.186,15.969c-3.935,2.3-7.86,4.621-11.772,6.964C1315.887,957.73,1313.818,958.266,1311.776,958.266z
				 M1362.18,929.581c-4.15,0-8.17-2.218-10.28-6.127c-3.065-5.673-0.951-12.756,4.72-15.819c4.078-2.204,8.166-4.384,12.264-6.544
				c5.713-3.003,12.769-0.816,15.772,4.888c3.003,5.704,0.818,12.764-4.886,15.771c-4.026,2.12-8.042,4.262-12.049,6.427
				C1365.956,929.13,1364.053,929.581,1362.18,929.581z M1413.735,903.174c-4.335,0-8.498-2.424-10.515-6.586
				c-2.811-5.801-0.388-12.785,5.414-15.596c4.166-2.02,8.336-4.015,12.512-5.987c5.821-2.751,12.788-0.261,15.544,5.568
				c2.753,5.829,0.261,12.789-5.57,15.543c-4.104,1.94-8.209,3.902-12.303,5.886
				C1417.178,902.796,1415.442,903.174,1413.735,903.174z M1466.446,879.025c-4.518,0-8.818-2.638-10.723-7.049
				c-2.557-5.919,0.169-12.79,6.088-15.347c4.27-1.844,8.541-3.661,12.818-5.453c5.961-2.5,12.795,0.309,15.28,6.251
				c2.495,5.946-0.306,12.788-6.251,15.28c-4.199,1.762-8.397,3.547-12.59,5.358C1469.56,878.716,1467.99,879.025,1466.446,879.025z
				 M1520.225,857.214c-4.71,0-9.147-2.871-10.919-7.536c-2.287-6.028,0.746-12.769,6.775-15.057c4.349-1.65,8.7-3.274,13.052-4.871
				c6.046-2.222,12.759,0.883,14.984,6.937c2.222,6.052-0.886,12.761-6.938,14.982c-4.274,1.568-8.547,3.163-12.818,4.784
				C1523,856.968,1521.599,857.214,1520.225,857.214z M1574.942,837.881c-4.912,0-9.486-3.127-11.095-8.052
				c-2-6.129,1.345-12.72,7.472-14.723c4.427-1.446,8.85-2.865,13.267-4.254c6.163-1.945,12.704,1.482,14.642,7.63
				c1.935,6.15-1.482,12.705-7.632,14.64c-4.339,1.366-8.677,2.759-13.026,4.179
				C1577.366,837.694,1576.144,837.881,1574.942,837.881z M1630.52,821.182c-5.13,0-9.834-3.409-11.254-8.596
				c-1.7-6.22,1.961-12.64,8.179-14.342c4.499-1.231,8.994-2.43,13.479-3.599c6.238-1.617,12.616,2.116,14.238,8.355
				c1.625,6.24-2.114,12.616-8.355,14.241c-4.394,1.143-8.792,2.319-13.199,3.524
				C1632.575,821.047,1631.539,821.182,1630.52,821.182z M1686.872,807.335c-5.375,0-10.208-3.731-11.397-9.196
				c-1.371-6.301,2.625-12.52,8.925-13.889c4.567-0.994,9.121-1.953,13.665-2.876c6.3-1.285,12.482,2.793,13.766,9.112
				c1.287,6.319-2.795,12.482-9.114,13.767c-4.44,0.904-8.889,1.84-13.352,2.811
				C1688.527,807.247,1687.693,807.335,1686.872,807.335z M1988.394,798.609c-0.844,0-1.7-0.093-2.557-0.285
				c-4.342-0.971-8.733-1.881-13.163-2.733c-6.332-1.215-10.479-7.334-9.264-13.665c1.215-6.334,7.313-10.486,13.668-9.264
				c4.665,0.894,9.284,1.853,13.854,2.876c6.293,1.407,10.254,7.648,8.847,13.941
				C1998.56,794.913,1993.739,798.609,1988.394,798.609z M1743.902,796.635c-5.651,0-10.616-4.109-11.521-9.867
				c-1-6.37,3.355-12.344,9.723-13.342c4.625-0.726,9.231-1.415,13.828-2.067c6.332-0.899,12.29,3.533,13.199,9.92
				c0.902,6.383-3.537,12.292-9.922,13.197c-4.479,0.635-8.974,1.308-13.482,2.015
				C1745.114,796.588,1744.501,796.635,1743.902,796.635z M1801.489,789.482c-5.974,0-11.069-4.56-11.616-10.626
				c-0.577-6.422,4.16-12.098,10.58-12.676c4.674-0.422,9.326-0.801,13.961-1.138c6.362-0.464,12.02,4.363,12.492,10.796
				c0.466,6.43-4.368,12.023-10.798,12.49c-4.498,0.327-9.02,0.697-13.557,1.106
				C1802.193,789.467,1801.841,789.482,1801.489,789.482z M1931.152,789.434c-0.397,0-0.798-0.021-1.205-0.062
				c-4.446-0.456-8.928-0.86-13.447-1.208c-6.43-0.497-11.238-6.111-10.74-12.539c0.495-6.43,6.137-11.218,12.538-10.741
				c4.713,0.365,9.391,0.785,14.03,1.261c6.417,0.658,11.082,6.391,10.424,12.805
				C1942.136,784.959,1937.064,789.434,1931.152,789.434z M1859.438,786.425c-6.375,0-11.583-5.122-11.671-11.516
				c-0.088-6.446,5.068-11.745,11.515-11.831c3.176-0.044,6.336-0.065,9.482-0.065l4.554,0.015
				c6.446,0.042,11.639,5.303,11.596,11.751c-0.042,6.422-5.261,11.598-11.674,11.598c-0.026,0-0.049,0-0.078,0l-4.398-0.015
				c-3.042,0-6.098,0.021-9.163,0.062C1859.545,786.425,1859.49,786.425,1859.438,786.425z"/>
			<g>
				<g>
					<g>
						
							<linearGradient id="SVGID_00000088831161726648714960000001108149881405802131_" gradientUnits="userSpaceOnUse" x1="730.6228" y1="1110.809" x2="1039.7217" y2="1110.809">
							<stop  offset="0" style="stop-color:#4F52FF"/>
							<stop  offset="1" style="stop-color:#4042E2"/>
						</linearGradient>
						
							<circle style="fill:url(#SVGID_00000088831161726648714960000001108149881405802131_);" cx="885.172" cy="1110.809" r="154.549"/>
						
							<linearGradient id="SVGID_00000109718821556974433650000010209906859971342742_" gradientUnits="userSpaceOnUse" x1="730.3408" y1="1271.0848" x2="1039.7377" y2="1271.0848">
							<stop  offset="0" style="stop-color:#4F52FF"/>
							<stop  offset="1" style="stop-color:#4042E2"/>
						</linearGradient>
						<path style="fill:url(#SVGID_00000109718821556974433650000010209906859971342742_);" d="M1039.44,1102.523H885.172H730.623
							c0,0-12.304,85.782,125.629,320.74c6.018,10.251,17.014,16.377,28.901,16.383c11.887,0.005,22.903-6.018,28.92-16.27
							C1051.993,1188.398,1039.44,1102.523,1039.44,1102.523z"/>
					</g>
					<g>
						<path style="opacity:0.8;fill:#FFFFFF;" d="M885.103,1444.661v0.87h0.048c-13.452,0-26.009-7.402-32.768-18.916
							c-80.626-137.341-110.17-224.181-120.753-272.773c-3.018-11.178-4.751-22.136-5.299-33.371
							c-0.934-11.492-0.219-16.334-0.135-16.846l0.406-2.473c6.227-83.019,75.321-147.628,158.57-147.628
							c84.343,0,154.061,65.525,158.774,149.204c0.118,1.095,0.345,3.873,0.256,8.519l0.007,0.57c0,15.18-2.145,30.215-6.374,44.69
							c-10.948,48.55-40.673,134.533-119.926,269.558C911.107,1437.656,899.009,1444.661,885.103,1444.661z M734.841,1109.476
							c-0.037,2.318,0.034,5.627,0.44,10.61l0.01-0.016c0.513,10.643,2.159,20.891,5.03,31.499l0.053,0.178
							c10.425,47.933,39.662,133.686,119.748,270.106c5.156,8.783,14.715,14.23,25,14.235l-0.019,4.477v-4.487
							c9.271,0,19.869-5.502,25.067-14.359c78.744-134.16,108.142-219.421,118.924-267.321l0.08-0.277
							c4.016-13.697,5.157-27.93,5.157-42.303l-0.902-0.632v-0.051c0-4.474,0.758-6.893,0.685-7.528l0.428-0.26
							c-4.387-78.985-69.972-140.857-149.596-140.857c-79.471,0-145.161,62.744-149.692,142.422l-0.128,4.563H734.841z"/>
					</g>
					
						<ellipse transform="matrix(0.7071 -0.7071 0.7071 0.7071 -525.701 951.4662)" style="fill:#FFFFFF;" cx="885.671" cy="1110.31" rx="89.24" ry="89.24"/>
					<g>
						<g>
							<path style="fill:#7D97F4;" d="M885.671,1204.536c-51.956,0-94.225-42.269-94.225-94.225
								c0-51.956,42.27-94.226,94.225-94.226c51.956,0,94.226,42.269,94.226,94.226
								C979.896,1162.266,937.627,1204.536,885.671,1204.536z M885.671,1026.056c-46.458,0-84.254,37.797-84.254,84.255
								c0,46.458,37.797,84.255,84.254,84.255c46.458,0,84.255-37.797,84.255-84.255
								C969.925,1063.852,932.129,1026.056,885.671,1026.056z"/>
						</g>
					</g>
				</g>
				<g>
					<path style="fill:#FFFFFF;" d="M801.018,1017.398c-0.421,0-0.839-0.177-1.135-0.521c-0.538-0.627-0.466-1.571,0.161-2.109
						c25.07-21.53,57.099-33.387,90.189-33.387c0.826,0,1.496,0.669,1.496,1.496c0,0.826-0.669,1.496-1.496,1.496
						c-32.376,0-63.713,11.601-88.241,32.665C801.709,1017.279,801.363,1017.398,801.018,1017.398z"/>
				</g>
				<g>
					<path style="fill:#FFFFFF;" d="M753.231,1121.372c-0.826,0-1.496-0.67-1.496-1.496c0-25.842,7.164-51.052,20.718-72.903
						c0.436-0.703,1.358-0.918,2.06-0.483c0.702,0.436,0.918,1.358,0.483,2.059c-13.26,21.378-20.27,46.042-20.27,71.327
						C754.727,1120.702,754.057,1121.372,753.231,1121.372z"/>
				</g>
			</g>
			<g>
				<g>
					<g>
						
							<linearGradient id="SVGID_00000116224070623358496590000000142085038316129966_" gradientUnits="userSpaceOnUse" x1="1875.9792" y1="574.1698" x2="2100.9819" y2="574.1698">
							<stop  offset="0" style="stop-color:#4F52FF"/>
							<stop  offset="1" style="stop-color:#4042E2"/>
						</linearGradient>
						
							<circle style="fill:url(#SVGID_00000116224070623358496590000000142085038316129966_);" cx="1988.481" cy="574.17" r="112.501"/>
						
							<linearGradient id="SVGID_00000133496429840703421650000012584950100410536600_" gradientUnits="userSpaceOnUse" x1="1875.774" y1="690.8395" x2="2100.9934" y2="690.8395">
							<stop  offset="0" style="stop-color:#4F52FF"/>
							<stop  offset="1" style="stop-color:#4042E2"/>
						</linearGradient>
						<path style="fill:url(#SVGID_00000133496429840703421650000012584950100410536600_);" d="M2100.777,568.138h-112.296h-112.501
							c0,0-8.956,62.443,91.449,233.477c4.381,7.462,12.385,11.921,21.038,11.925c8.653,0.004,16.672-4.381,21.052-11.843
							C2109.915,630.649,2100.777,568.138,2100.777,568.138z"/>
					</g>
					<g>
						<path style="opacity:0.8;fill:#FFFFFF;" d="M1988.43,817.191v0.633h0.035c-9.792,0-18.933-5.388-23.853-13.769
							c-58.69-99.975-80.196-163.188-87.9-198.56c-2.197-8.137-3.458-16.114-3.857-24.292c-0.68-8.366-0.16-11.89-0.098-12.262
							l0.296-1.8c4.533-60.432,54.828-107.463,115.428-107.463c61.396,0,112.146,47.698,115.577,108.61
							c0.086,0.797,0.251,2.819,0.186,6.201l0.005,0.415c0,11.05-1.561,21.995-4.64,32.531
							c-7.969,35.341-29.607,97.931-87.298,196.219C2007.359,812.092,1998.553,817.191,1988.43,817.191z M1879.05,573.2
							c-0.027,1.687,0.025,4.096,0.32,7.723l0.007-0.012c0.374,7.747,1.571,15.207,3.661,22.929l0.039,0.129
							c7.588,34.892,28.871,97.314,87.168,196.618c3.753,6.393,10.711,10.359,18.198,10.362l-0.014,3.259v-3.266
							c6.748,0,14.463-4.005,18.247-10.452c57.32-97.659,78.72-159.723,86.569-194.591l0.058-0.202
							c2.923-9.97,3.754-20.331,3.754-30.793l-0.656-0.46v-0.037c0-3.257,0.552-5.017,0.499-5.48l0.311-0.189
							c-3.194-57.496-50.935-102.534-108.895-102.534c-57.85,0-105.667,45.673-108.965,103.673l-0.093,3.322H1879.05z"/>
					</g>
					
						<ellipse transform="matrix(0.9571 -0.2898 0.2898 0.9571 -80.9429 600.9546)" style="fill:#FFFFFF;" cx="1988.844" cy="573.807" rx="64.96" ry="64.96"/>
					<g>
						<g>
							<path style="fill:#7D97F4;" d="M1988.844,642.396c-37.82,0-68.589-30.769-68.589-68.59c0-37.82,30.769-68.59,68.589-68.59
								c37.82,0,68.59,30.769,68.59,68.59C2057.433,611.627,2026.664,642.396,1988.844,642.396z M1988.844,512.476
								c-33.818,0-61.331,27.513-61.331,61.331c0,33.818,27.513,61.331,61.331,61.331c33.818,0,61.332-27.513,61.332-61.331
								C2050.175,539.989,2022.662,512.476,1988.844,512.476z"/>
						</g>
					</g>
				</g>
				<g>
					<path style="fill:#FFFFFF;" d="M1927.222,506.173c-0.306,0-0.611-0.129-0.827-0.38c-0.391-0.456-0.339-1.143,0.117-1.535
						c18.249-15.673,41.564-24.304,65.651-24.304c0.601,0,1.089,0.487,1.089,1.089c0,0.602-0.487,1.089-1.089,1.089
						c-23.567,0-46.379,8.445-64.233,23.778C1927.725,506.086,1927.473,506.173,1927.222,506.173z"/>
				</g>
				<g>
					<path style="fill:#FFFFFF;" d="M1892.437,581.859c-0.601,0-1.089-0.487-1.089-1.089c0-18.811,5.215-37.162,15.081-53.069
						c0.318-0.511,0.989-0.668,1.499-0.351c0.511,0.317,0.668,0.988,0.351,1.499c-9.653,15.561-14.755,33.515-14.755,51.921
						C1893.525,581.372,1893.038,581.859,1892.437,581.859z"/>
				</g>
			</g>
		</g>
		<g>
			<g>
				
					<linearGradient id="SVGID_00000181789325923318376280000015363374368108419248_" gradientUnits="userSpaceOnUse" x1="10431.1475" y1="-6615.1313" x2="10065.9229" y2="-6129.833" gradientTransform="matrix(-1 0 0 1 6228.2734 0)">
					<stop  offset="0" style="stop-color:#09005D"/>
					<stop  offset="1" style="stop-color:#1A0F91"/>
				</linearGradient>
				<polygon style="fill:url(#SVGID_00000181789325923318376280000015363374368108419248_);" points="1510.269,2123.433 
					3196.853,2123.433 3196.853,2070.249 1510.269,2070.249 				"/>
				
					<linearGradient id="SVGID_00000017484537425550585350000001087207527770564273_" gradientUnits="userSpaceOnUse" x1="10164.5566" y1="-6815.7617" x2="9799.332" y2="-6330.4629" gradientTransform="matrix(-1 0 0 1 6228.2734 0)">
					<stop  offset="0" style="stop-color:#09005D"/>
					<stop  offset="1" style="stop-color:#1A0F91"/>
				</linearGradient>
				<polygon style="fill:url(#SVGID_00000017484537425550585350000001087207527770564273_);" points="1510.269,1587.433 
					3226.899,1587.433 3226.899,1536.439 1510.269,1536.439 				"/>
				
					<linearGradient id="SVGID_00000003816222689220154200000000366237487649660859_" gradientUnits="userSpaceOnUse" x1="9973.5479" y1="-6959.5127" x2="9608.3232" y2="-6474.2148" gradientTransform="matrix(-1 0 0 1 6228.2734 0)">
					<stop  offset="0" style="stop-color:#09005D"/>
					<stop  offset="1" style="stop-color:#1A0F91"/>
				</linearGradient>
				<polygon style="fill:url(#SVGID_00000003816222689220154200000000366237487649660859_);" points="1510.269,1176.518 
					3209.943,1176.518 3209.943,1129.709 1510.269,1129.709 				"/>
				
					<linearGradient id="SVGID_00000040541069109856270940000002943350011525979532_" gradientUnits="userSpaceOnUse" x1="3704.1982" y1="-5533.7271" x2="3334.8232" y2="-5042.9141" gradientTransform="matrix(1 0 0 1 3174.0576 0)">
					<stop  offset="0" style="stop-color:#09005D"/>
					<stop  offset="1" style="stop-color:#1A0F91"/>
				</linearGradient>
				<path style="fill:url(#SVGID_00000040541069109856270940000002943350011525979532_);" d="M1495.741,2406.152h53.798V775.249
					c0-8.908-7.221-16.129-16.129-16.129h-37.669V2406.152z"/>
				
					<linearGradient id="SVGID_00000035529666145503904440000006585246928160212659_" gradientUnits="userSpaceOnUse" x1="9750.291" y1="-7300.7183" x2="9380.7754" y2="-6809.7183" gradientTransform="matrix(-1 0 0 1 6228.2734 0)">
					<stop  offset="0" style="stop-color:#09005D"/>
					<stop  offset="1" style="stop-color:#1A0F91"/>
				</linearGradient>
				<path style="fill:url(#SVGID_00000035529666145503904440000006585246928160212659_);" d="M3181.099,2524.819h59.396V766.423
					h-41.589c-9.835,0-17.807,7.972-17.807,17.807V2524.819z"/>
			</g>
			<g>
				<g>
					
						<linearGradient id="SVGID_00000119836620252602988990000005060123316239941051_" gradientUnits="userSpaceOnUse" x1="2300.1477" y1="1585.3988" x2="2660.3687" y2="1250.1929">
						<stop  offset="0" style="stop-color:#FF928E"/>
						<stop  offset="1" style="stop-color:#FE7062"/>
					</linearGradient>
					<path style="fill:url(#SVGID_00000119836620252602988990000005060123316239941051_);" d="M2326.645,1535.067
						c-25.403,0.483-46.255-19.977-46.255-45.385v-201.972c0-26.536,21.326-48.128,47.86-48.417
						c79.637-0.867,243.884-0.91,378.273,10.415c18.339,1.545,32.603,16.576,33.268,34.968l12.56,195.266
						c0.933,25.828-19.487,47.406-45.327,47.897L2326.645,1535.067z"/>
					<path style="opacity:0.37;fill:#FFFFFF;" d="M2497.788,1411.267l54.671,5.898c7.65,0.826,14.178-5.483,13.614-13.157
						l-11.952-162.629c-22.918-0.727-45.523-1.257-67.336-1.629v159.263C2486.785,1405.308,2491.529,1410.592,2497.788,1411.267z"/>
					<path style="fill:#FFFFFF;" d="M2520.195,1383.08c0.168,2.925,2.592,5.181,5.485,5.181c0.108,0,0.215-0.004,0.323-0.011
						c3.032-0.175,5.349-2.775,5.17-5.807l-8.243-141.937c-3.697-0.091-7.363-0.174-11.029-0.255L2520.195,1383.08z"/>
				</g>
				<g>
					
						<linearGradient id="SVGID_00000031189045172295930170000010959667018927937425_" gradientUnits="userSpaceOnUse" x1="2760.1167" y1="1592.8864" x2="3150.3557" y2="1242.6724">
						<stop  offset="0" style="stop-color:#FF928E"/>
						<stop  offset="1" style="stop-color:#FE7062"/>
					</linearGradient>
					<path style="fill:url(#SVGID_00000031189045172295930170000010959667018927937425_);" d="M2806.223,1534.906
						c-21.764,0.414-39.63-17.116-39.63-38.884v-173.044c0-22.735,18.271-41.235,41.005-41.482
						c68.23-0.743,208.952-0.78,324.094,8.923c15.712,1.324,27.934,14.202,28.503,29.959l10.761,167.299
						c0.8,22.129-16.695,40.616-38.835,41.037L2806.223,1534.906z"/>
					<path style="opacity:0.37;fill:#FFFFFF;" d="M2952.854,1428.837l46.84,5.053c6.554,0.708,12.147-4.698,11.664-11.273
						l-10.24-139.336c-19.635-0.623-39.003-1.077-57.692-1.396v136.452C2943.427,1423.732,2947.491,1428.259,2952.854,1428.837z"/>
					<path style="fill:#FFFFFF;" d="M2972.052,1404.687c0.144,2.506,2.221,4.439,4.699,4.439c0.092,0,0.184-0.003,0.276-0.009
						c2.598-0.15,4.583-2.377,4.429-4.975l-7.063-121.608c-3.167-0.078-6.308-0.149-9.449-0.219L2972.052,1404.687z"/>
				</g>
				<g>
					
						<linearGradient id="SVGID_00000041272324890746809150000009846012959616359310_" gradientUnits="userSpaceOnUse" x1="2046.4471" y1="1260.1051" x2="2336.625" y2="899.8848">
						<stop  offset="0" style="stop-color:#FF928E"/>
						<stop  offset="1" style="stop-color:#FE7062"/>
					</linearGradient>
					<path style="fill:url(#SVGID_00000041272324890746809150000009846012959616359310_);" d="M2112.251,1152.166
						c-15.675,0.381-28.542-15.768-28.542-35.822V956.926c0-20.945,13.159-37.988,29.532-38.216
						c49.139-0.685,150.487-0.719,233.411,8.22c11.316,1.22,20.118,13.083,20.528,27.6l7.75,154.124
						c0.576,20.386-12.024,37.418-27.969,37.805L2112.251,1152.166z"/>
					<path style="opacity:0.37;fill:#FFFFFF;" d="M2239.637,1054.45l43.152,4.655c6.038,0.652,11.19-4.328,10.746-10.385
						l-9.434-128.364c-18.089-0.574-35.932-0.992-53.149-1.286v125.707C2230.953,1049.747,2234.697,1053.917,2239.637,1054.45z"/>
					<path style="fill:#FFFFFF;" d="M2257.324,1032.202c0.133,2.309,2.046,4.089,4.329,4.089c0.085,0,0.17-0.003,0.255-0.009
						c2.393-0.138,4.222-2.19,4.08-4.584l-6.506-112.032c-2.918-0.072-5.812-0.137-8.705-0.201L2257.324,1032.202z"/>
				</g>
				<g>
					
						<linearGradient id="SVGID_00000160892850823402400590000014500867663434808764_" gradientUnits="userSpaceOnUse" x1="2393.7412" y1="1180.1965" x2="2733.9507" y2="875.0084">
						<stop  offset="0" style="stop-color:#FF928E"/>
						<stop  offset="1" style="stop-color:#FE7062"/>
					</linearGradient>
					<path style="fill:url(#SVGID_00000160892850823402400590000014500867663434808764_);" d="M2448.973,1147.083
						c-18.212,0.443-33.161-18.32-33.161-41.62V920.245c0-24.335,15.289-44.136,34.312-44.401
						c57.092-0.795,174.843-0.835,271.188,9.551c13.147,1.417,23.374,15.201,23.85,32.067l9.005,179.069
						c0.669,23.685-13.97,43.474-32.495,43.924L2448.973,1147.083z"/>
					<path style="opacity:0.37;fill:#FFFFFF;" d="M2596.976,1033.553l50.136,5.408c7.015,0.758,13.001-5.028,12.485-12.066
						l-10.96-149.139c-21.017-0.666-41.747-1.152-61.75-1.494v146.052C2586.885,1028.088,2591.236,1032.934,2596.976,1033.553z"/>
					<path style="fill:#FFFFFF;" d="M2617.525,1007.704c0.154,2.683,2.377,4.751,5.03,4.751c0.099,0,0.197-0.003,0.296-0.01
						c2.781-0.161,4.905-2.545,4.741-5.325l-7.56-130.164c-3.39-0.084-6.752-0.159-10.114-0.234L2617.525,1007.704z"/>
				</g>
				<g>
					
						<linearGradient id="SVGID_00000058566333123226362730000008140473520966102461_" gradientUnits="userSpaceOnUse" x1="2796.7864" y1="1205.4812" x2="3111.979" y2="875.2798">
						<stop  offset="0" style="stop-color:#FF928E"/>
						<stop  offset="1" style="stop-color:#FE7062"/>
					</linearGradient>
					<path style="fill:url(#SVGID_00000058566333123226362730000008140473520966102461_);" d="M2840.588,1155.5
						c-18.211,0.443-33.161-18.32-33.161-41.62V928.662c0-24.335,15.289-44.136,34.312-44.401
						c57.093-0.795,174.843-0.835,271.188,9.551c13.147,1.417,23.374,15.201,23.85,32.067l9.005,179.069
						c0.669,23.686-13.97,43.474-32.495,43.924L2840.588,1155.5z"/>
					<path style="opacity:0.37;fill:#FFFFFF;" d="M2988.591,1041.97l50.136,5.408c7.015,0.758,13.002-5.028,12.485-12.066
						l-10.96-149.139c-21.017-0.666-41.747-1.152-61.75-1.494v146.052C2978.501,1036.505,2982.851,1041.351,2988.591,1041.97z"/>
					<path style="fill:#FFFFFF;" d="M3009.14,1016.121c0.154,2.683,2.377,4.751,5.03,4.751c0.099,0,0.197-0.003,0.296-0.01
						c2.781-0.161,4.905-2.545,4.741-5.325l-7.56-130.164c-3.39-0.084-6.752-0.159-10.114-0.234L3009.14,1016.121z"/>
				</g>
				<g>
					
						<linearGradient id="SVGID_00000031207240006122061080000008174897718121994403_" gradientUnits="userSpaceOnUse" x1="1968.3883" y1="2073.4617" x2="2263.5698" y2="1718.2433">
						<stop  offset="0" style="stop-color:#FF928E"/>
						<stop  offset="1" style="stop-color:#FE7062"/>
					</linearGradient>
					<path style="fill:url(#SVGID_00000031207240006122061080000008174897718121994403_);" d="M1973.201,2076.373
						c-21.764,0.653-39.63-27.042-39.63-61.432v-273.388c0-35.919,18.271-65.146,41.005-65.537
						c68.23-1.174,208.953-1.232,324.094,14.097c15.712,2.091,27.934,22.437,28.503,47.332l10.761,264.311
						c0.8,34.961-16.696,64.168-38.835,64.833L1973.201,2076.373z"/>
					<path style="opacity:0.37;fill:#FFFFFF;" d="M2119.832,1823.189l46.841,5.053c6.554,0.708,12.147-4.698,11.664-11.273
						l-10.24-139.336c-19.635-0.623-39.003-1.077-57.692-1.396v136.452C2110.404,1818.084,2114.469,1822.611,2119.832,1823.189z"/>
					<path style="fill:#FFFFFF;" d="M2139.03,1799.039c0.144,2.506,2.221,4.439,4.699,4.439c0.092,0,0.184-0.003,0.276-0.009
						c2.598-0.15,4.583-2.377,4.429-4.975l-7.063-121.608c-3.167-0.078-6.308-0.149-9.449-0.219L2139.03,1799.039z"/>
				</g>
				<g>
					
						<linearGradient id="SVGID_00000079467361772147122570000009566946668964175511_" gradientUnits="userSpaceOnUse" x1="2312.3853" y1="2087.7034" x2="2732.6453" y2="1707.4681">
						<stop  offset="0" style="stop-color:#FF928E"/>
						<stop  offset="1" style="stop-color:#FE7062"/>
					</linearGradient>
					<path style="fill:url(#SVGID_00000079467361772147122570000009566946668964175511_);" d="M2391.413,2073.574
						c-21.764,0.653-39.63-27.042-39.63-61.432v-273.388c0-35.919,18.271-65.146,41.005-65.537
						c68.23-1.174,208.952-1.232,324.094,14.097c15.712,2.091,27.934,22.437,28.503,47.332l10.761,264.311
						c0.8,34.961-16.696,64.168-38.835,64.833L2391.413,2073.574z"/>
					<path style="opacity:0.37;fill:#FFFFFF;" d="M2538.043,1820.391l46.841,5.053c6.554,0.708,12.147-4.698,11.664-11.273
						l-10.24-139.336c-19.635-0.623-39.003-1.077-57.692-1.396v136.452C2528.616,1815.286,2532.681,1819.812,2538.043,1820.391z"/>
					<path style="fill:#FFFFFF;" d="M2557.242,1796.241c0.144,2.506,2.221,4.439,4.699,4.439c0.092,0,0.184-0.003,0.276-0.009
						c2.598-0.15,4.583-2.377,4.429-4.975l-7.063-121.608c-3.167-0.078-6.309-0.149-9.449-0.219L2557.242,1796.241z"/>
				</g>
				<g>
					
						<linearGradient id="SVGID_00000127745430945093243690000016481452846692171924_" gradientUnits="userSpaceOnUse" x1="2752.6689" y1="2182.5999" x2="3127.8989" y2="1617.2533">
						<stop  offset="0" style="stop-color:#FF928E"/>
						<stop  offset="1" style="stop-color:#FE7062"/>
					</linearGradient>
					<path style="fill:url(#SVGID_00000127745430945093243690000016481452846692171924_);" d="M2810.641,2078.671
						c-21.764,0.73-39.63-30.227-39.63-68.669v-305.593c0-40.151,18.271-72.82,41.005-73.257
						c68.23-1.312,208.953-1.377,324.094,15.758c15.712,2.338,27.934,25.08,28.503,52.908l10.761,295.447
						c0.8,39.079-16.696,71.727-38.835,72.47L2810.641,2078.671z"/>
					<path style="opacity:0.37;fill:#FFFFFF;" d="M2957.271,1795.663l46.84,5.648c6.554,0.791,12.147-5.251,11.664-12.601
						l-10.24-155.75c-19.635-0.696-39.003-1.203-57.692-1.56v152.526C2947.844,1789.956,2951.908,1795.016,2957.271,1795.663z"/>
					<path style="fill:#FFFFFF;" d="M2976.469,1768.668c0.144,2.802,2.221,4.962,4.699,4.962c0.092,0,0.184-0.004,0.276-0.01
						c2.598-0.168,4.583-2.657,4.429-5.561l-7.063-135.933c-3.167-0.087-6.308-0.167-9.449-0.244L2976.469,1768.668z"/>
				</g>
			</g>
		</g>
		<g>
			<g>
				
					<linearGradient id="SVGID_00000070094411429146729140000005725309834481928834_" gradientUnits="userSpaceOnUse" x1="1942.0221" y1="2446.9829" x2="1788.5883" y2="1079.4126">
					<stop  offset="0" style="stop-color:#09005D"/>
					<stop  offset="1" style="stop-color:#1A0F91"/>
				</linearGradient>
				
					<rect x="1266.059" y="2719.602" style="fill:url(#SVGID_00000070094411429146729140000005725309834481928834_);" width="1427.795" height="130.99"/>
				
					<linearGradient id="SVGID_00000116943845628779173720000004908902083740602016_" gradientUnits="userSpaceOnUse" x1="2672.542" y1="2795.9553" x2="2824.2261" y2="2777.959" gradientTransform="matrix(1 0 0 1 -1508.4775 0)">
					<stop  offset="0" style="stop-color:#CB236D"/>
					<stop  offset="1" style="stop-color:#4C246D"/>
				</linearGradient>
				<path style="fill:url(#SVGID_00000116943845628779173720000004908902083740602016_);" d="M1276.538,2850.593h-19.599
					c-12.326,0-22.317-9.992-22.317-22.317v-108.673h41.917V2850.593z"/>
				
					<linearGradient id="SVGID_00000112605875969733337890000011413075517603573896_" gradientUnits="userSpaceOnUse" x1="4782.916" y1="1152.6211" x2="3168.5076" y2="2567.9211" gradientTransform="matrix(1 0 0 1 -1508.4775 0)">
					<stop  offset="0" style="stop-color:#4F52FF"/>
					<stop  offset="1" style="stop-color:#4042E2"/>
				</linearGradient>
				<path style="fill:url(#SVGID_00000112605875969733337890000011413075517603573896_);" d="M2678.135,1970.053
					c0-31.213-32.979-57.352-68.748-57.352H1262.055c-35.77,0-64.111,26.139-64.111,57.352v710.062
					c0,31.213,28.341,57.826,64.111,57.826h1347.332c35.77,0,68.748-26.613,68.748-57.826V1970.053z"/>
				<path style="opacity:0.24;fill:#91B3FA;" d="M2630.979,1998.668c0-28.559-24.612-51.909-58.344-51.909H1301.602
					c-33.732,0-66.98,23.35-66.98,51.909v649.061c0,28.559,33.248,56.155,66.98,56.155h1271.033
					c33.732,0,58.344-27.596,58.344-56.155V1998.668z"/>
				
					<linearGradient id="SVGID_00000180361088148830817080000002581482624424212894_" gradientUnits="userSpaceOnUse" x1="2686.8918" y1="2946.4163" x2="3107.1497" y2="2210.9653">
					<stop  offset="0" style="stop-color:#FF928E"/>
					<stop  offset="1" style="stop-color:#FE7062"/>
				</linearGradient>
				<path style="fill:url(#SVGID_00000180361088148830817080000002581482624424212894_);" d="M3146.108,2487.422l-88.505-272.99
					c-2.218-6.856-8.614-10.931-15.819-10.931c-61.771,0-342.69,0-355.789,0v647.093h481.074L3146.108,2487.422z"/>
				
					<linearGradient id="SVGID_00000170279041822362304980000015752977869580060583_" gradientUnits="userSpaceOnUse" x1="8475.125" y1="2815.0579" x2="9009.8809" y2="2828.5227" gradientTransform="matrix(1 0 0 1 -5028.4775 0)">
					<stop  offset="0" style="stop-color:#09005D"/>
					<stop  offset="1" style="stop-color:#1A0F91"/>
				</linearGradient>
				<path style="fill:url(#SVGID_00000170279041822362304980000015752977869580060583_);" d="M3169.731,2751.433
					c-4.762-3.131-10.554-4.824-17.193-4.697l-370.763,7.143l-1.64,105.348l370.434,9.1c13.578,0,25.33-6.55,25.33-15.73v-89.244
					C3175.899,2758.863,3174.493,2754.563,3169.731,2751.433z"/>
				<g>
					
						<linearGradient id="SVGID_00000008859848961963169060000014282035952038714788_" gradientUnits="userSpaceOnUse" x1="2781.5544" y1="2365.9497" x2="3077.5264" y2="2365.9497">
						<stop  offset="0" style="stop-color:#09005D"/>
						<stop  offset="1" style="stop-color:#1A0F91"/>
					</linearGradient>
					<path style="fill:url(#SVGID_00000008859848961963169060000014282035952038714788_);" d="M3077.018,2468.453l-53.497-212.211
						c-1.868-7.377-8.506-13.444-16.116-13.444h-209.227c-4.494,0-8.797,2.719-11.928,5.943c-3.131,3.225-4.822,8.029-4.689,12.521
						l5.017,169.902c0.235,7.969,6.095,14.761,13.965,16.033l257.707,41.69c5.526,0.893,11.13-1.027,14.911-5.155
						C3076.942,2479.604,3078.392,2473.879,3077.018,2468.453z"/>
					
						<linearGradient id="SVGID_00000158707910387032830000000018293711943877687719_" gradientUnits="userSpaceOnUse" x1="3049.6919" y1="2366.3118" x2="3146.1084" y2="2366.3118">
						<stop  offset="0" style="stop-color:#09005D"/>
						<stop  offset="1" style="stop-color:#1A0F91"/>
					</linearGradient>
					<path style="fill:url(#SVGID_00000158707910387032830000000018293711943877687719_);" d="M3066.329,2241.145l-2.729,0.452
						c-4.63,0.767-8.72,3.456-11.261,7.402c-2.54,3.946-3.294,8.783-2.076,13.315l58.314,216.854
						c2.255,8.385,10.583,13.623,19.117,12.022l18.415-3.453L3066.329,2241.145z"/>
				</g>
				
					<linearGradient id="SVGID_00000015351994309310069860000009500888488661430178_" gradientUnits="userSpaceOnUse" x1="2785.5476" y1="2521.8069" x2="2882.4805" y2="2521.8069">
					<stop  offset="0" style="stop-color:#E1473D"/>
					<stop  offset="1" style="stop-color:#E9605A"/>
				</linearGradient>
				<path style="fill:url(#SVGID_00000015351994309310069860000009500888488661430178_);" d="M2882.48,2525.735
					c0,8.682-7.038,15.72-15.72,15.72h-65.492c-8.682,0-15.72-7.038-15.72-15.72v-7.857c0-8.682,7.038-15.72,15.72-15.72h65.492
					c8.682,0,15.72,7.038,15.72,15.72V2525.735z"/>
				
					<linearGradient id="SVGID_00000044173710185691057720000017233564046987859093_" gradientUnits="userSpaceOnUse" x1="8177.0703" y1="1929.5175" x2="7573.8765" y2="2240.8435" gradientTransform="matrix(1 0 0 1 -5028.4775 0)">
					<stop  offset="0" style="stop-color:#4F52FF"/>
					<stop  offset="1" style="stop-color:#4042E2"/>
				</linearGradient>
				<path style="fill:url(#SVGID_00000044173710185691057720000017233564046987859093_);" d="M2710.794,2012.419
					c-5.581-0.407-12.665,1.322-16.765,5.13c-4.1,3.808-8.035,8.947-8.035,14.543V2203.5h216.971
					C2902.966,2203.5,2891.306,2025.589,2710.794,2012.419z"/>
				<g>
					<g>
						
							<linearGradient id="SVGID_00000144310979746987710070000006708803234282938247_" gradientUnits="userSpaceOnUse" x1="7768.3223" y1="2862.2061" x2="8105.5117" y2="2862.2061" gradientTransform="matrix(1 0 0 1 -5028.4775 0)">
							<stop  offset="0" style="stop-color:#09005D"/>
							<stop  offset="1" style="stop-color:#1A0F91"/>
						</linearGradient>
						
							<circle style="fill:url(#SVGID_00000144310979746987710070000006708803234282938247_);" cx="2908.439" cy="2862.206" r="168.595"/>
						
							<ellipse transform="matrix(0.984 -0.1784 0.1784 0.984 -464.0191 564.8669)" style="fill:#7D97F4;" cx="2908.439" cy="2862.206" rx="136.917" ry="136.917"/>
						<path style="fill:#BDD0FB;" d="M3023.444,2912.73c-0.437,0-0.876-0.086-1.3-0.265c-1.697-0.718-2.489-2.674-1.772-4.372
							c6.147-14.528,9.264-29.966,9.264-45.886c0-65.004-52.884-117.888-117.888-117.888c-20.166,0-40.066,5.178-57.545,14.974
							c-1.619,0.9-3.645,0.324-4.541-1.28c-0.902-1.607-0.329-3.64,1.277-4.541c18.476-10.352,39.502-15.824,60.809-15.824
							c68.682,0,124.559,55.877,124.559,124.559c0,16.818-3.293,33.131-9.792,48.486
							C3025.978,2911.965,3024.743,2912.728,3023.444,2912.73z"/>
					</g>
					
						<linearGradient id="SVGID_00000181070623712582129710000008933141344260858501_" gradientUnits="userSpaceOnUse" x1="7998.7954" y1="2760.8203" x2="7827.4131" y2="3041.6238" gradientTransform="matrix(1 0 0 1 -5028.4775 0)">
						<stop  offset="0" style="stop-color:#09005D"/>
						<stop  offset="1" style="stop-color:#1A0F91"/>
					</linearGradient>
					
						<circle style="fill:url(#SVGID_00000181070623712582129710000008933141344260858501_);" cx="2908.439" cy="2862.206" r="62.791"/>
				</g>
				<g>
					<g>
						
							<linearGradient id="SVGID_00000005986008458567943250000009856704700268299706_" gradientUnits="userSpaceOnUse" x1="6728.8721" y1="2862.2061" x2="7066.0605" y2="2862.2061" gradientTransform="matrix(1 0 0 1 -5028.4775 0)">
							<stop  offset="0" style="stop-color:#09005D"/>
							<stop  offset="1" style="stop-color:#1A0F91"/>
						</linearGradient>
						
							<circle style="fill:url(#SVGID_00000005986008458567943250000009856704700268299706_);" cx="1868.989" cy="2862.206" r="168.594"/>
						
							<ellipse transform="matrix(0.9871 -0.1602 0.1602 0.9871 -434.3423 336.3381)" style="fill:#7D97F4;" cx="1868.988" cy="2862.206" rx="136.917" ry="136.917"/>
						<path style="fill:#BDD0FB;" d="M1983.993,2912.73c-0.433,0-0.876-0.086-1.3-0.265c-1.697-0.717-2.489-2.674-1.772-4.372
							c6.147-14.536,9.264-29.974,9.264-45.886c0-65.004-52.883-117.888-117.888-117.888c-20.166,0-40.066,5.178-57.548,14.974
							c-1.616,0.9-3.645,0.324-4.541-1.28c-0.902-1.607-0.329-3.64,1.277-4.541c18.479-10.352,39.505-15.824,60.812-15.824
							c68.682,0,124.559,55.877,124.559,124.559c0,16.81-3.293,33.123-9.792,48.486
							C1986.527,2911.965,1985.293,2912.728,1983.993,2912.73z"/>
					</g>
					
						<linearGradient id="SVGID_00000047044054473048855360000016142426169784008615_" gradientUnits="userSpaceOnUse" x1="6959.3447" y1="2760.8203" x2="6787.9624" y2="3041.6238" gradientTransform="matrix(1 0 0 1 -5028.4775 0)">
						<stop  offset="0" style="stop-color:#09005D"/>
						<stop  offset="1" style="stop-color:#1A0F91"/>
					</linearGradient>
					
						<circle style="fill:url(#SVGID_00000047044054473048855360000016142426169784008615_);" cx="1868.989" cy="2862.206" r="62.791"/>
				</g>
				<g>
					<g>
						
							<linearGradient id="SVGID_00000036940350193219219310000011737075231740602010_" gradientUnits="userSpaceOnUse" x1="6343.1934" y1="2862.2061" x2="6680.3823" y2="2862.2061" gradientTransform="matrix(1 0 0 1 -5028.4775 0)">
							<stop  offset="0" style="stop-color:#09005D"/>
							<stop  offset="1" style="stop-color:#1A0F91"/>
						</linearGradient>
						
							<circle style="fill:url(#SVGID_00000036940350193219219310000011737075231740602010_);" cx="1483.31" cy="2862.206" r="168.594"/>
						
							<linearGradient id="SVGID_00000147909254278814347640000017223501616753398164_" gradientUnits="userSpaceOnUse" x1="3387.2041" y1="2592.1658" x2="2725.9185" y2="3043.7751" gradientTransform="matrix(1 0 0 1 -1508.4775 0)">
							<stop  offset="0" style="stop-color:#FF928E"/>
							<stop  offset="1" style="stop-color:#FE7062"/>
						</linearGradient>
						
							<circle style="fill:url(#SVGID_00000147909254278814347640000017223501616753398164_);" cx="1483.31" cy="2862.206" r="136.917"/>
						<path style="fill:#FFFFFF;" d="M1598.314,2912.73c-0.436,0-0.876-0.086-1.3-0.265c-1.697-0.718-2.489-2.674-1.772-4.372
							c6.147-14.528,9.264-29.966,9.264-45.886c0-65.004-52.883-117.888-117.888-117.888c-20.166,0-40.066,5.178-57.545,14.974
							c-1.619,0.9-3.645,0.324-4.541-1.28c-0.902-1.607-0.329-3.64,1.277-4.541c18.476-10.352,39.502-15.824,60.809-15.824
							c68.682,0,124.559,55.877,124.559,124.559c0,16.818-3.293,33.131-9.792,48.486
							C1600.848,2911.965,1599.614,2912.728,1598.314,2912.73z"/>
					</g>
					
						<linearGradient id="SVGID_00000055697853621372536110000018423829545707096219_" gradientUnits="userSpaceOnUse" x1="6573.6665" y1="2760.8203" x2="6402.2842" y2="3041.6238" gradientTransform="matrix(1 0 0 1 -5028.4775 0)">
						<stop  offset="0" style="stop-color:#09005D"/>
						<stop  offset="1" style="stop-color:#1A0F91"/>
					</linearGradient>
					
						<circle style="fill:url(#SVGID_00000055697853621372536110000018423829545707096219_);" cx="1483.31" cy="2862.206" r="62.791"/>
				</g>
				<g>
					
						<linearGradient id="SVGID_00000160152093585724355310000000903448400911247007_" gradientUnits="userSpaceOnUse" x1="8135.4609" y1="2752.4749" x2="8189.2822" y2="2623.8286" gradientTransform="matrix(1 0 0 1 -5028.4775 0)">
						<stop  offset="0" style="stop-color:#E1473D"/>
						<stop  offset="1" style="stop-color:#E9605A"/>
					</linearGradient>
					<path style="fill:url(#SVGID_00000160152093585724355310000000903448400911247007_);" d="M3168.04,2726.538
						c0,9.191-7.451,16.643-16.643,16.643h-42.689c-9.191,0-16.642-7.451-16.642-16.643v-58.408c0-9.191,7.451-16.643,16.642-16.643
						h42.689c9.191,0,16.643,7.451,16.643,16.643V2726.538z"/>
					<path style="opacity:0.8;fill:#FFFFFF;" d="M3126.123,2651.487v86.454h-13.677c-9.181,0-20.381-10.33-20.381-19.511v-54.749
						c0-9.181,11.2-12.194,20.381-12.194H3126.123z"/>
				</g>
				<path style="opacity:0.7;fill:#FFFFFF;" d="M2714.814,2631.244c-1.844,0-3.336-1.494-3.336-3.335v-385.111
					c0-1.842,1.492-3.336,3.336-3.336c1.844,0,3.335,1.494,3.335,3.336v385.111
					C2718.15,2629.75,2716.658,2631.244,2714.814,2631.244z"/>
				<path style="fill:#BDD0FB;" d="M2863.142,2186.1c-1.384,0-2.677-0.868-3.153-2.249
					c-49.815-144.342-152.621-134.134-153.663-134.018c-1.827,0.192-3.482-1.093-3.697-2.924c-0.215-1.829,1.088-3.484,2.915-3.702
					c1.065-0.127,109.112-11.163,160.751,138.468c0.599,1.741-0.323,3.64-2.065,4.241
					C2863.868,2186.04,2863.503,2186.1,2863.142,2186.1z"/>
			</g>
		</g>
		<g>
			<g>
				
					<linearGradient id="SVGID_00000137814103348697296960000012935614838082598033_" gradientUnits="userSpaceOnUse" x1="4405.3037" y1="3566.7544" x2="4550.1831" y2="3566.7544" gradientTransform="matrix(0.9998 0.0093 -0.0195 0.7887 -3707.5007 326.9)">
					<stop  offset="0" style="stop-color:#09005D"/>
					<stop  offset="1" style="stop-color:#1A0F91"/>
				</linearGradient>
				<path style="fill:url(#SVGID_00000137814103348697296960000012935614838082598033_);" d="M771.212,3223.005
					c0.037-0.851-0.013-1.714-0.268-2.584c-15.052-51.177-95.239-83.713-95.239-83.713l-32.136,1.685
					c-19.562,44.802-17.873,72.407-15.213,84.72c0.073,0.345,0.197,0.674,0.305,1.008
					C655.083,3226.232,709.532,3227.958,771.212,3223.005z"/>
				
					<linearGradient id="SVGID_00000179620896251957628310000016280917385929563549_" gradientUnits="userSpaceOnUse" x1="4768.0024" y1="3395.8408" x2="4240.9253" y2="3809.7031" gradientTransform="matrix(0.9998 0.0093 -0.0195 0.7887 -3707.5007 326.9)">
					<stop  offset="0" style="stop-color:#4F52FF"/>
					<stop  offset="1" style="stop-color:#4042E2"/>
				</linearGradient>
				<path style="fill:url(#SVGID_00000179620896251957628310000016280917385929563549_);" d="M628.661,3224.121
					c1.327,4.115,5.087,7.346,9.982,8.207c37.497,6.597,97.465,2.126,122.655-0.231c5.558-0.52,9.709-4.527,9.915-9.092
					C709.532,3227.958,655.083,3226.232,628.661,3224.121z"/>
			</g>
			<g>
				
					<linearGradient id="SVGID_00000111873657073085249080000009467150252430860725_" gradientUnits="userSpaceOnUse" x1="613.1689" y1="3161.1848" x2="946.2491" y2="3305.1614" gradientTransform="matrix(-1 0 0 1 1624.9614 0)">
					<stop  offset="0" style="stop-color:#4F52FF"/>
					<stop  offset="1" style="stop-color:#4042E2"/>
				</linearGradient>
				<path style="fill:url(#SVGID_00000111873657073085249080000009467150252430860725_);" d="M858.898,3214.546
					c-28.514-0.799-43.263-4.156-50.887-7.273c-0.018,2.835-0.001,5.721,0.09,8.71c0.099,3.193,2.464,5.744,5.373,5.725
					l156.561-1.011c4.996-0.032,7.916-5.826,5.751-10.408C955.258,3211.985,902.976,3215.779,858.898,3214.546z"/>
				
					<linearGradient id="SVGID_00000134227698440768130000000000691584082389175730_" gradientUnits="userSpaceOnUse" x1="2650.0408" y1="3198.0305" x2="2999.4585" y2="3082.8171" gradientTransform="matrix(1 0 0 1 -1829.7137 0)">
					<stop  offset="0" style="stop-color:#09005D"/>
					<stop  offset="1" style="stop-color:#1A0F91"/>
				</linearGradient>
				<path style="fill:url(#SVGID_00000134227698440768130000000000691584082389175730_);" d="M975.786,3210.289
					c-0.189-0.399-0.351-0.805-0.619-1.181c-13.827-19.319-49.042-57.79-118.629-74.476l-33.382-1.053
					c0,0-14.865,25.835-15.146,73.693c7.624,3.117,22.373,6.475,50.887,7.273C902.976,3215.779,955.258,3211.985,975.786,3210.289z"
					/>
			</g>
			
				<linearGradient id="SVGID_00000106146515824490098980000014818927366342141607_" gradientUnits="userSpaceOnUse" x1="1314.7053" y1="1801.5088" x2="634.6898" y2="3388.9302" gradientTransform="matrix(-1 0 0 1 1624.9614 0)">
				<stop  offset="0" style="stop-color:#09005D"/>
				<stop  offset="1" style="stop-color:#1A0F91"/>
			</linearGradient>
			<path style="fill:url(#SVGID_00000106146515824490098980000014818927366342141607_);" d="M800.329,2361.451
				c0,0,70.398,392.795,68.942,777.853c-0.026,7.021-51.199,16.33-52.305,9.844c-11.29-66.206-86.13-497.168-123.044-557.719
				c0,0-14.993,381.448-7.229,553.789c0.193,4.285-47.662,11.094-48.376,6.121c-8.042-56.032-62.154-445.807-60.187-686.065
				c0.111-13.549,12.664-126.423,12.664-126.423C670.32,2352.647,730.916,2376.719,800.329,2361.451z"/>
			
				<linearGradient id="SVGID_00000084511777243379809810000001749549877492591244_" gradientUnits="userSpaceOnUse" x1="922.1978" y1="2849.1934" x2="832.1422" y2="2268.8364">
				<stop  offset="0" style="stop-color:#4F52FF"/>
				<stop  offset="1" style="stop-color:#4042E2"/>
			</linearGradient>
			<path style="fill:url(#SVGID_00000084511777243379809810000001749549877492591244_);" d="M544.899,2135.88
				c-46.417-102.341-51.357-174.237,0-204.807c3.064-0.778,6.182-1.389,9.349-1.791c16.357-2.077,38.984-4.948,65.049-8.385
				c0,0,0.076,0,0.227-0.039c3.778-0.831,55.907-11.974,112.532-15.488c54.396-3.399,112.872,0.266,136.481,26.934
				c0,0,16.191,40.303,46.621,80.239c43.717,57.374,65.185,121.311,87.888,108.846c6.202-3.396,10.794-26.224,15.54-36.555
				c16.549,1.973,49.463,6.959,75.121,34.325c-18.959,103.139-81.783,145.774-235.75,19.131
				c-29.238,82.689-61.44,187.163-50.976,262.977c0.869,6.46-4.381,13.386-10.841,14.33c-35.055,5.214-146.346,18.541-200.629-3.219
				c-3.173-1.246-11.951-2.959-11.951-6.397c0.113-25.044,6.424-124.637-34.864-255.338
				C547.193,2145.798,545.916,2140.876,544.899,2135.88z"/>
			
				<linearGradient id="SVGID_00000101061442291761958760000016582540745793575561_" gradientUnits="userSpaceOnUse" x1="2541.8425" y1="1794.0436" x2="2456.8359" y2="2161.3926" gradientTransform="matrix(1 0 0 1 -1829.7137 0)">
				<stop  offset="0" style="stop-color:#FEBBBA"/>
				<stop  offset="1" style="stop-color:#FF928E"/>
			</linearGradient>
			<path style="fill:url(#SVGID_00000101061442291761958760000016582540745793575561_);" d="M647.895,1822.649l-10.465,106.925
				c0,0,60.151,18.117,103.901-12.752l-30.755-97.178L647.895,1822.649z"/>
			<g>
				
					<linearGradient id="SVGID_00000079474523785746895690000014066717847906946211_" gradientUnits="userSpaceOnUse" x1="1246.8733" y1="165.795" x2="1096.0707" y2="365.2946" gradientTransform="matrix(0.9332 -0.3594 0.3594 0.9332 -500.4762 2036.3817)">
					<stop  offset="0" style="stop-color:#FEBBBA"/>
					<stop  offset="1" style="stop-color:#FF928E"/>
				</linearGradient>
				<path style="fill:url(#SVGID_00000079474523785746895690000014066717847906946211_);" d="M749.997,1731.526
					c0.714,1.855,3.738,133.274,3.738,133.274l-75.075,0.131L657.29,1740.8C657.29,1740.8,738.035,1700.465,749.997,1731.526z"/>
				
					<linearGradient id="SVGID_00000049187867723014369520000018117390421378663834_" gradientUnits="userSpaceOnUse" x1="1131.7034" y1="213.7047" x2="1298.6287" y2="213.7047" gradientTransform="matrix(0.9332 -0.3594 0.3594 0.9332 -500.4762 2036.3817)">
					<stop  offset="0" style="stop-color:#09005D"/>
					<stop  offset="1" style="stop-color:#1A0F91"/>
				</linearGradient>
				<path style="fill:url(#SVGID_00000049187867723014369520000018117390421378663834_);" d="M683.02,1756.318
					c-2.439,2.29-3.68,5.557-3.372,8.888l6.044,65.269c0.092,0.991,0.307,1.949,0.67,2.876c1.999,5.106,9.671,20.85,25.649,12.113
					c13.619-7.446,26.238-14.101,36.486-14.422c5.985-0.187,10.922,4.632,11.038,10.619c0.239,12.331,0.214,37.222-2.912,59.335
					c-0.783,5.543-5.746,9.512-11.332,9.16c-14.741-0.932-43.474-3.611-66.549-11.025c-3.791-1.218-6.589-4.409-7.312-8.324
					c-3.181-17.23-12.292-65.485-16.96-78.712c-4.338-12.288-21.196-16.543-29.072-17.88c-2.989-0.508-5.612-2.216-7.275-4.75
					c-4.988-7.603-12.18-24.021,7.597-36.464c4.918-3.093,6.334-9.681,3.343-14.66c-5.36-8.924-9.214-22.69,6.421-34.469
					c15.83-11.924,31.164-6.308,40.554-0.294c4.155,2.662,9.75,2.5,13.42-0.798c1.633-1.467,3.871-2.31,6.914-1.54
					c15.458,3.913,12.786-17.667,20.729-24.403c11.134-9.442,23.178,4.299,27.674,14.433c2.494,5.622,4.258,11.56,6.992,17.069
					c4.285,8.633,10.953,16.069,19.07,21.265c1.245,0.797,2.584,1.606,3.266,2.917c0.969,1.863,0.27,4.247-1.135,5.807
					c-1.404,1.56-3.376,2.47-5.308,3.292c-15.892,6.758-32.364,7.474-48.936,1.948
					C704.313,1738.765,689.741,1750.01,683.02,1756.318z"/>
				
					<linearGradient id="SVGID_00000023961444453995703940000009868239734944822414_" gradientUnits="userSpaceOnUse" x1="1028.7504" y1="322.9086" x2="1148.1193" y2="200.4394" gradientTransform="matrix(0.9332 -0.3594 0.3594 0.9332 -500.4762 2036.3817)">
					<stop  offset="0" style="stop-color:#FEBBBA"/>
					<stop  offset="1" style="stop-color:#FF928E"/>
				</linearGradient>
				<path style="fill:url(#SVGID_00000023961444453995703940000009868239734944822414_);" d="M660.356,1835.105
					c0,0,1.336-38.745-14.233-44.682c-15.569-5.936-34.513,3.312-24.021,28.985C635.154,1851.343,660.356,1835.105,660.356,1835.105
					z"/>
			</g>
			<g>
				<g>
					
						<linearGradient id="SVGID_00000093167083090445192010000006365043566147027390_" gradientUnits="userSpaceOnUse" x1="657.8133" y1="1596.9684" x2="701.1753" y2="1770.417">
						<stop  offset="0" style="stop-color:#4F52FF"/>
						<stop  offset="1" style="stop-color:#4042E2"/>
					</linearGradient>
					<path style="fill:url(#SVGID_00000093167083090445192010000006365043566147027390_);" d="M773.964,1728.629
						c-23.195-121.89-196.324-70.986-156.599,37.913C677.316,1748.787,748.693,1716.927,773.964,1728.629z"/>
				</g>
				
					<linearGradient id="SVGID_00000069397938943469976580000009528521328405063552_" gradientUnits="userSpaceOnUse" x1="773.1705" y1="1579.0941" x2="743.1506" y2="1819.2535">
					<stop  offset="0" style="stop-color:#4F52FF"/>
					<stop  offset="1" style="stop-color:#4042E2"/>
				</linearGradient>
				<path style="fill:url(#SVGID_00000069397938943469976580000009528521328405063552_);" d="M673.629,1746.325l100.576,27.611
					c2.554,0.701,5.297,0.013,7.205-1.824c13.89-13.367,30.112-19.611,48.179-20.22c2.286-0.077,2.796-3.255,0.661-4.075
					l-59.799-22.971c-0.066-0.026-0.135-0.046-0.204-0.062c-31.161-7.038-63.751,2.975-96.848,19.049
					C672.295,1744.369,672.446,1746,673.629,1746.325z"/>
			</g>
			<g>
				
					<linearGradient id="SVGID_00000077294649504790459370000017879477143498825912_" gradientUnits="userSpaceOnUse" x1="1240.4213" y1="1881.7906" x2="720.1003" y2="2196.9851">
					<stop  offset="0" style="stop-color:#FF928E"/>
					<stop  offset="1" style="stop-color:#FE7062"/>
				</linearGradient>
				<path style="fill:url(#SVGID_00000077294649504790459370000017879477143498825912_);" d="M645.792,2284.91
					c-30.205,0.574-54.999-23.754-54.999-53.964v-240.152c0-31.552,25.357-57.226,56.908-57.569
					c94.691-1.031,289.986-1.082,449.78,12.383c21.805,1.837,38.766,19.71,39.557,41.578l14.935,232.178
					c1.11,30.71-23.17,56.367-53.895,56.951L645.792,2284.91z"/>
				<path style="opacity:0.37;fill:#FFFFFF;" d="M849.287,2137.707l65.006,7.012c9.096,0.982,16.858-6.52,16.188-15.644
					l-14.211-193.372c-27.25-0.864-54.129-1.494-80.065-1.937v189.369C836.204,2130.622,841.845,2136.904,849.287,2137.707z"/>
				<path style="fill:#FFFFFF;" d="M875.931,2104.192c0.2,3.478,3.082,6.16,6.522,6.16c0.128,0,0.256-0.004,0.383-0.013
					c3.606-0.209,6.36-3.299,6.147-6.905l-9.802-168.768c-4.395-0.109-8.755-0.207-13.114-0.303L875.931,2104.192z"/>
			</g>
			<g>
				
					<linearGradient id="SVGID_00000065064981250806960980000015365647745100192443_" gradientUnits="userSpaceOnUse" x1="5046.0767" y1="2226.6033" x2="4696.8486" y2="1889.6482" gradientTransform="matrix(-0.254 -0.9672 -0.9672 0.254 4012.2852 6474.6128)">
					<stop  offset="0" style="stop-color:#FEBBBA"/>
					<stop  offset="1" style="stop-color:#FF928E"/>
				</linearGradient>
				<path style="fill:url(#SVGID_00000065064981250806960980000015365647745100192443_);" d="M867.641,2309.951
					c11.72-16.331,2.921-27.217,2.921-27.217c-59.152-21.119-143.919-19.451-208.186-100.11
					c-26.107,13.84-5.016,22.061-33.628,63.686C763.347,2332.934,867.641,2309.951,867.641,2309.951z"/>
				
					<linearGradient id="SVGID_00000080188657464843640480000003802728363607472049_" gradientUnits="userSpaceOnUse" x1="843.5377" y1="1971.5057" x2="1348.8477" y2="1621.2914">
					<stop  offset="0" style="stop-color:#4F52FF"/>
					<stop  offset="1" style="stop-color:#4042E2"/>
				</linearGradient>
				<path style="fill:url(#SVGID_00000080188657464843640480000003802728363607472049_);" d="M594.181,2006.728
					c0.834,96.988,31.374,170.9,176.873,246.163l-29.723,46.111c-70.836-6.594-195.493-101.148-233.12-171.339
					c-9.279-17.31-22.106-71.796-20.242-110.174C491.804,1938.506,573.154,1866.373,594.181,2006.728z"/>
				
					<linearGradient id="SVGID_00000095314590601287579590000000022594201551082941_" gradientUnits="userSpaceOnUse" x1="997.5792" y1="2314.3054" x2="634.1109" y2="2286.946" gradientTransform="matrix(-1 0 0 1 1624.9614 0)">
					<stop  offset="0" style="stop-color:#FEBBBA"/>
					<stop  offset="1" style="stop-color:#FF928E"/>
				</linearGradient>
				<path style="fill:url(#SVGID_00000095314590601287579590000000022594201551082941_);" d="M866.352,2309.501
					c35.528,13.116,59.887-8.2,75.711-31.256c-33.187-3.802-54.051-4.266-81.37,1.231L866.352,2309.501z"/>
			</g>
			
				<linearGradient id="SVGID_00000139982107252334403770000001987485817630754176_" gradientUnits="userSpaceOnUse" x1="3089.5188" y1="2181.6936" x2="3245.2007" y2="2914.8374" gradientTransform="matrix(0.9937 -0.1123 0.1123 0.9937 -2223.0525 117.0656)">
				<stop  offset="0" style="stop-color:#FEBBBA"/>
				<stop  offset="1" style="stop-color:#FF928E"/>
			</linearGradient>
			<path style="fill:url(#SVGID_00000139982107252334403770000001987485817630754176_);" d="M1155.892,2062.38
				c-9.029-2.215-29.309-29.652-31.466-19.627c-2.158,10.024,3.958,22.736,3.051,26.997c-0.908,4.263-7.714,28.139-2.304,38.157
				c3.903,7.229,11.564,29.968,15.527,42.067c1.315,4.015,2.386,9.319,6.586,8.847c4.2-0.472,7.452-6.124,7.843-10.332
				C1155.285,2146.802,1164.922,2064.594,1155.892,2062.38z"/>
		</g>
		<g>
			
				<linearGradient id="SVGID_00000083771811570825663750000012840061577597434272_" gradientUnits="userSpaceOnUse" x1="2278.4011" y1="2775.2485" x2="1698.0442" y2="2775.2485">
				<stop  offset="0" style="stop-color:#FF928E"/>
				<stop  offset="1" style="stop-color:#FE7062"/>
			</linearGradient>
			<path style="fill:url(#SVGID_00000083771811570825663750000012840061577597434272_);" d="M1109.55,3139.773h613.741v-729.05
				h-602.446c-6.238,0-11.295,5.057-11.295,11.295V3139.773z"/>
			
				<linearGradient id="SVGID_00000062883120220950780310000004471761136723677568_" gradientUnits="userSpaceOnUse" x1="-205.4305" y1="2302.291" x2="748.0078" y2="3684.7759" gradientTransform="matrix(-1 0 0 1 1624.9614 0)">
				<stop  offset="0" style="stop-color:#FF928E"/>
				<stop  offset="1" style="stop-color:#FE7062"/>
			</linearGradient>
			<path style="fill:url(#SVGID_00000062883120220950780310000004471761136723677568_);" d="M1208.908,3140.048h589.923V2424.25
				c0-7.071-5.732-12.803-12.803-12.803h-577.12V3140.048z"/>
			<path style="opacity:0.37;fill:#FFFFFF;" d="M1522.393,2621.961l-68.149,7.352c-9.536,1.03-17.673-6.835-16.97-16.401
				l14.898-202.722c28.568-0.906,56.746-1.566,83.936-2.031v198.525C1536.108,2614.533,1530.195,2621.119,1522.393,2621.961z"/>
			<path style="fill:#FFFFFF;" d="M1494.461,2586.825c-0.21,3.646-3.231,6.458-6.837,6.458c-0.134,0-0.268-0.005-0.402-0.013
				c-3.78-0.219-6.667-3.459-6.444-7.239l10.276-176.928c4.608-0.114,9.178-0.217,13.748-0.318L1494.461,2586.825z"/>
		</g>
	</g>
</g>
</svg>
